<?xml version="1.0" encoding="UTF-8"?>
<svg id="Capa_1" data-name="Capa 1" xmlns="http://www.w3.org/2000/svg" viewBox="0 0 554.21 584.15">
  <defs>
    <style>
      .cls-1 {
        fill: none;
      }
    </style>
  </defs>
  <path class="cls-1" d="M554.21,0v584.15H0V0h554.21ZM436.23,372.5l11.05-17.16c61.98-102.15,22.06-237.03-78.69-290.61C246.36-.27,100.19,79.77,79.1,221.13c-.32,2.15-.83,11.9-1.4,12.79-.84,1.32-3.55-.1-4.91-.08-1.65.02-6.08.35-7.56.63-.85.16-1.49.6-1.79,1.48,3.22,11.22,6.43,22.46,10.3,33.44,3.61,10.25,9.79,20.95,12.97,30.26,4.22,12.37,6.69,22.58,12.59,34.64,1.29,2.64,10.02,17.47,10.03,18.53.01,1.43-2.56,2.68-3.54,3.69-10.61,10.98-17.17,20.09-22.59,34.94-1.17,3.2-8.4,26.79-7.43,27.82,23.88-.53,49.13,8.52,71.65-3.49l13.06-9.62c2.96,4.4,7.76,7.73,12.01,10.72,11.21,7.88,24.13,13.85,36.43,19.51-9.46,21.22-10.68,44.96-7.43,68,2.64,18.71,13.67,49.29,28.36,60.81,3.14,2.47,9.46,7.51,8.17-.62-.92-5.81-9.42-18.39-12.24-24.75-10.3-23.23-14.36-50.87-10.27-76.27,1.25-7.79,3.96-14.68,6.42-22.05,40.18,13.79,84.19,11.94,124.35-.99,34.1-10.98,63.91-35,86.02-64.05l79.18-.56v-3.43h-75.23Z"/>
  <path d="M436.23,372.5h75.23s0,3.43,0,3.43l-79.18.56c-22.11,29.05-51.92,53.08-86.02,64.05-40.16,12.93-84.17,14.78-124.35.99-2.46,7.37-5.16,14.26-6.42,22.05-4.08,25.4-.03,53.04,10.27,76.27,2.82,6.36,11.32,18.93,12.24,24.75,1.29,8.13-5.02,3.09-8.17.62-14.69-11.53-25.72-42.1-28.36-60.81-3.25-23.04-2.04-46.78,7.43-68-12.3-5.66-25.22-11.63-36.43-19.51-4.25-2.99-9.05-6.32-12.01-10.72l-13.06,9.62c-22.52,12.01-47.77,2.96-71.65,3.49-.96-1.03,6.26-24.63,7.43-27.82,5.43-14.85,11.98-23.96,22.59-34.94.98-1.01,3.55-2.25,3.54-3.69,0-1.07-8.74-15.89-10.03-18.53-5.91-12.07-8.37-22.27-12.59-34.64-3.18-9.31-9.35-20.01-12.97-30.26-3.87-10.99-7.08-22.23-10.3-33.44.3-.88.94-1.32,1.79-1.48,1.48-.28,5.91-.61,7.56-.63,1.36-.02,4.07,1.41,4.91.08.57-.89,1.07-10.64,1.4-12.79C100.19,79.77,246.36-.27,368.58,64.74c100.75,53.58,140.67,188.45,78.69,290.61l-11.05,17.16ZM428.65,375.93h-48.98c-.74,0-1.74-2.51-1.35-3.42,8.93.06,17.88-.08,26.81-.03,1.41,0,2.74.61,4.28.62,7.39.04,14.64-.74,21.97-.34,15.75-20.65,27.7-44.46,34.76-69.99,26.09-94.35-19.71-193.77-101.97-236.24-111.27-57.46-244.52,7.09-276.88,131.86-3.02,11.64-5.31,23.42-6.11,35.49,11.32.47,22.78.43,33.78,3.47,16.86,4.66,32.23,14.88,40.65,31.32,7.51,14.66,8.37,33.59,2.68,49.08,4.32,5.3,9.29,10.05,13.56,15.38,6.58,8.21,13,16.83,19.48,25.1,11.86,15.13,22.31,31.73,30.04,49.64,1.13.92,14.25-23.37,15.24-25.29,13.73-26.49,20.57-50.67,21.56-81.1.2-6.03-.44-12.26,1.21-18.12l3.11-4.99c-.71,2.47.95,2.19,1.37,2.85.72,1.11-1.19,5.38-1.37,7.13-.88,8.35-.29,17.18-1.08,25.67-2.35,25.24-10.04,47.19-21.55,69.13-4.56,8.7-12.46,19.73-15.73,28.48-.7,1.88-.71,3.34-.6,5.36l-.8-1.71c-4.8,5.11-6.48,12.25-9.43,18.48l6.95,3.16c3.13-10.92,10.26-19.49,15.29-29.24,3.89-7.54,6.84-14.63,11.38-22.24,1.5-2.51,4.07-4.98,5.42-7.4,8.74-15.68,15.75-44.89,18.2-62.97.82-6.05,2.74-21.11,1.46-26.45-1.19-4.93-7.88-9.01-8.91-14.46l-1.11-.35c-.09,1.18-.64,2-1.35,2.87-15.45,18.78-37.43,22.67-60.09,19.95-1.51-.18-5.09-1.09-3.54-3.16,16.12.26,24.86-15.15,34.11-26.5-30.81-4.27-57.52-19.15-76.53-45.13-9.09-12.42-14.88-27.1-24.7-39-4.7-5.7-10.4-10.9-15.94-15.71-1.18-1.74-1.01-3.61-.4-5.54,1.21-3.84,11.76-12.18,15.02-15.54,7.55-7.77,14.17-16.91,22.82-23.3,11.55-8.54,24.55-11.88,38.56-8.7,4.59-19.18,21.16-33,38.34-39.18,20.54-7.39,41.85-2.61,60.57,7.74,1.55.86,5.66,4.28,6.53,4.55,1.82.57,7.55-1.42,10.14-1.62,9.91-.76,20.29.82,28.99,6,2.27,1.35,7.87,6.66,9.03,7.02,2.18.67,6.3-.56,9.08-.44,12.26.53,24.74,7.01,28.66,19.98,2.97,9.79-.33,15.2-2.41,24.5,16.43-.73,31.68,15.7,39.06,29.85,8.79,16.85,7.85,32.54-6.04,45.74-10.64,10.11-33.88,26.53-47.1,31.93-3.5,1.43-19.02,5.49-20.42,6.71-.4.35-.47,1.54-.96,2.11-5.3,6.03-14.46,11.82-22.03,13.87-9.38,2.54-18.7-.21-28.01-1.86,5.1,8.53,1.48,18.98,2.17,28.22.43,5.75,3.26,11.02,2.69,16.83-1.56,0-2.79-1.46-3.8-2.55-2.99-3.25-5.81-8.14-8.91-11.72-2.95-3.41-6.48-6.31-9.47-9.69-1.42,26.45-5.99,52-16.15,76.25-1.02,2.42-2.28,4.65-3.33,7.04,10.25-8.27,21.64-15.2,33.35-21.03,3.96-1.97,8.21-2.72,11.57-6.63,2.91-3.38,1.84-12.04,2.23-16.48,2.88-32.69,32.86-58.77,62.06-64.65,24.33-4.89,48.93,7.72,74.01,7.27,1.41-.03,4.98-1.67,5,1.28,0,1.62-1.81,5.87-2.49,7.64-8.86,23.15-22.07,44.09-42.57,57.24-22.13,14.2-44.39,9.97-68.47,4.84.53-.75,1.35-.93,2.14-1.17,7.99-2.4,18.94,1.52,27.36,2.01,21.84,1.27,33.6-4.32,49.52-19.1,13.24-12.29,17.88-21.67,25.53-38.13.32-.69,2.4-4.92.72-4.37-2.34.76-9.33,6.81-12.37,8.65-33.65,20.34-74.5,26.61-108.23,48.5-2.63,1.71-11.75,8.34-13.28,10.53-.29.42-1.45,2.67-1.16,3.05,4.04-3.77,11.77-3.19,17.04-2.85,29.24,1.91,43.43,10.71,54.12,39.36,1.19,3.2,5.09,13.21,3.8,15.97-.53,1.13-9.55,5.66-11.27,6.37-33.48,13.77-73.04-3.5-70.72-45.45.19-3.51,1.41-7.55,1.62-10.85.06-.87.12-1-.75-.79-3.97.96-9.66,3.87-13.34,5.92-10.54,5.88-21.12,12.97-29.49,21.97-7.47,13.49-16.01,27.03-23.09,40.7-.83,1.61-6.33,12.93-5.86,13.5,6.41,1.75,12.86,3.63,19.37,4.97,47.41,9.74,104.94,1,145.01-28.23,14.91-10.88,29.84-24.19,40.74-39.49ZM295.51,92.41c-8-7.47-19.31-12.42-29.65-15.24-20.34-5.55-40.93-1.17-57.2,12.97-6.56,5.7-15.51,18.02-16.49,27.12-.29,2.76,1.77.12,1.59,2.52l-2.16-.57c-1.81,6.13-1.22,13.81,1.93,19.35,4.57,8.04,14.33,14.83,21.87,19.44.27-14.48-4.04-35.04,5.43-47.05,5.95-7.55,18.19-12.25,27.3-12.87,5.84-.4,13.76,1.6,18.94.57,4.43-.88,10.98-6.25,16.8-6.25h11.64ZM325.28,184.26c15.93-6.21,28.44-27.28,29.75-44.79,1.31-17.51-7.16-35.09-21.28-44.3-10.6-6.91-21.85-6.78-33.91-5.61,1.5,5.13,8.27,6.22,12.28,8.45,20.3,11.3,17.69,29.6,16.93,50-.45,12.17.5,24.59-3.76,36.25ZM299.29,154.02c2.04.05,3.59.32,5.39-.88,4.15-2.75,12.35-11.16,15.08-15.49,5.73-9.11,6.9-17.6.87-26.94-9.78-15.13-31.95-16.77-47.31-12.02l12.46,5.97c9.73,4.98,17.11,17.88,19.23,28.78,1.35,6.95-3.07,14.47-5.71,20.57ZM251.12,101.55c-14.42.52-32.92,7.56-31.41,25.98.65,7.95,8.34,15.9,13.83,20.79.45-1.79-.93-3.51-1.29-5.49-2.49-13.72-1.07-26.1,9.67-35.3l9.2-5.98ZM357.48,102.11c-3.28-.41-7.19.3-10.55,0,17.04,20.71,14.52,51.05-2.18,71l-6.2,7.72c5.54-4.06,12.64-9.19,17.33-14.25,4.97-5.37,9.24-13.28,13.56-19.36,1.81-2.55,4.25-4.4,5.98-7.39,9.36-16.22-.46-35.54-17.93-37.72ZM265.74,103.81c1.36-1.94-7.47-.45-8.15-.3-12,2.55-25.05,14.21-22.58,28.42,1.03,5.9,9.78,10.67,14.48,12.97-.93-2.2-2.29-3.85-2.96-6.29-2.98-10.91,5.93-19.14,15.69-19.94s21.96,3.25,27.02,13.15c1.16,2.27,1.46,4.59,2.35,6.67.19.44.1,1.09.92.71,1.42-.65,5.48-6.16,6.07-7.88,2.2-6.48-5.25-16.19-9.86-20.06-3.88-3.25-17.75-10.13-22.21-7.46l-8.36,10.87c.79-4.03,4.51-8.5,7.57-10.85ZM213.43,245.67c-21.82-24.45-31.95-55.61-31.6-89.1.06-5.88.29-15.34,1.16-21.02.49-3.2,5.27-15.56,4.78-17.1-.53-1.67-9.33-2.19-11.08-2.09-20.6,1.11-34.64,20.41-48.13,34.26-2.02,2.08-12.56,10.9-12.11,13.31,2.27,3.05,5.7,5.15,8.32,7.77,16.85,16.89,24.97,40.22,40.83,57.93,18.02,20.11,40.97,29.16,66.32,34.49.75-.94-1.26-2.52-1.89-3.14-5.24-5.11-11.75-9.88-16.6-15.31ZM260.74,122.8c-9.47,1.43-14.95,10.64-8.26,19.25,5.74,7.39,21.7,6.46,29.62,3.83s8.35-5.94,3.57-13.14c-5.64-8.51-15.43-11.37-24.93-9.94ZM302,132.92c-1.45-.32-.93.4-1.34,1.13-4.78,8.41-8.5,12.51-17.62,15.68-14.05,4.88-36.59,1.53-47.34-9.96-.1,2.79,1.79,8.96,3.27,11.38,1.39,2.26,9.04,9.27,11.4,10.24,3,1.23,3.3-.28,5.9-.52,2.21-.21,3.95.68,5.95.63,9.2-.23,22.27-2.8,30.87-6.3,7.26-2.96,9.27-14.85,8.91-22.27ZM239.76,261.28c-5.19-2.01-9.41-7.25-13.26-11.41-6.31-6.8-12.94-13.78-17.48-22.08-11.75-21.51-11.99-46.17-16.5-69.89-1.41-7.43-3.41-14.73-4.98-22.14-.13-.63,0-1.84-.81-1.7-2.63,20.48-2.55,41.03,2.97,61.03,5.84,21.13,17.25,40.36,32.73,55.06,3.49,3.31,10.62,9.61,14.86,11.14.5.18,2.49,1.19,2.46-.02ZM265.19,175.71c-15.67-10.26-31.89-20.56-44.06-35.42l-3.02-5.08c-.99,8.18.03,16.95,1.75,24.96,12.87,6.91,26.87,11.97,40.99,15.26.89.21,3.9,1.36,4.33.29ZM279.81,179.69c10.86,2.15,21.73,4.26,32.59,6.44,2.54.51,5.82,2.77,8.53.69.85-.65,2.21-7.18,2.54-8.73,2.96-13.78,2.77-28.32,1.79-42.32-2.35,2.54-3.51,5.81-5.67,8.56-8.56,10.88-21.2,22.06-32.24,29.91-.65.46-8.22,4.74-7.54,5.45ZM310.12,189.97c-26.03-7.08-54.04-9.58-79.15-20.12-14.2-5.96-28.34-13.59-38.29-26.1,8.14,31.46,6.01,67.17,26.79,93.55.96-1.64-.3-3.85-.27-5.42.14-7.19,4.64-16.89,9.73-21.68,16.3-15.34,57.63-12.82,79.32-19.08.74-.21,1.68-.08,1.87-1.16ZM402.98,157.68c-6.03-5.69-14.31-11.95-22.77-11.07-7.4.77-5.3,5.75-7.04,11.98-2.57,9.22-8.75,14.94-12.11,22.6-9.64,21.97-13.86,45.47-31.19,63.53-1.15,1.2-6.98,5.35-7.26,6.04-.73,1.79,2.23,1.73,3.25,3.37.39.63-.08,1.36-.02,1.39.5.3,1.75-.49,1.59.6-5.06-.31-9.73-3.74-13.53,1.71,6.88,1.84,12.69.76,19.48-.57.12-1.02-1.22-.55-1.82-.5-1.07.1-2.03.49-3.3.53-.6.02-2.05.36-1.91-.59,21.69-2.71,41.84-10.42,59.92-23.27,9.42-6.69,28.24-19.56,32.19-30.54,5.63-15.65-4.56-34.9-15.48-45.22ZM227.31,216.2c6.44-1.06,13.19-3.16,19.73-3.44,9.37-.41,19.79,1.38,29.27,1.19,11.59-.23,25.46-3.15,36.62-6.46,26.21-7.79,54.19-27.66,58.33-58.02l-12.71,18.83c-21.84,24.55-57.68,27.72-87.75,32.43-11.78,1.85-22.14,1.94-33.24,7.75l-10.26,7.72ZM303.62,156.31c-8.79,1.58-17.07,5.1-25.88,6.66-7.21,1.28-14.46,1.72-21.75,2.17,3.34,1.71,17.41,13.2,20.08,12.56,9.5-6.64,19.19-13.2,27.54-21.39ZM354.49,187.11c-15.3,17.47-40.58,25.94-62.57,29.02-16.49,2.31-31.66-.45-47.58.62-12.53.84-25.47,5.29-20.54,21.7,5.81,19.35,35.87,31.34,53.51,29.02,36.3-4.76,58.87-29.61,72.04-63.83,1.99-5.18,4.22-11.1,5.14-16.53ZM80.1,237.88v9.98c28.42,17.24,53.43,39.88,75.51,65.31.99.43.99-.97,1.17-1.6,2.83-9.97,1.61-27.57-2.27-37.18-11.18-27.69-41.25-37.17-67.64-37.14-2.06,0-4.48,1.15-6.77.62ZM77.39,237.88c-2.44.81-5.01.43-7.53.26-.39-.03-1.67-.74-1.12.58.45,1.1,7.53,7.31,8.11,6.57l.54-7.41ZM78.47,272.67c-.09-7.3-1.44-14.5-1.19-21.84l-6.92-5.54,8.11,27.38ZM152.08,315.45c.85-1.18-17.37-19.87-19.2-21.68-10.45-10.38-22.35-21.01-34.21-29.54-6.21-4.46-12.87-8.25-19.11-12.65,1.52,10.02.54,20.62,3.4,30.35,5,17.03,17.43,27.71,33.28,32.81,11.16,3.59,24.81,5.64,35.84.72ZM334.47,261.84c-8.71,1.02-17.41-.59-26.2.04l-13.3,5.08c9.4,2.28,19.79,5.09,29.05.68l10.46-5.8ZM213.78,292.64h14.34c1.67,0,6.55-1.85,8.38-2.58,9.4-3.75,17.65-10.7,23.28-19.39-5.11-2.45-20.1-4.23-24.65-1.45-1.19.73-7.03,6.81-8.38,8.28-4.33,4.74-8.23,10.59-12.97,15.13ZM439.47,276.67c-14.63,2.61-28.8-3.28-43.11-5.62-34.66-5.66-58.66,3.32-74.08,37.54-1.61,3.58-2.5,7.5-4.11,11.07-1.34,2.97-12.3,22.37-11.29,23.74,35-26.88,79.91-32.92,117.06-54.87,2.75-1.63,5.38-3.96,8.13-5.69,2.96-1.86,7.14-2.1,7.4-6.17ZM292.25,303.48c-1.4-8.02.83-16.29,0-24.25-1.25-12.12-9.38-8.06-17.03-7.67-3.17.16-6.4.06-9.49-.59,5.29,13.7,17.08,22.3,26.51,32.51ZM307.41,335.42c6.11-13.69,11.51-27.82,18.94-40.8l6.5-9.4c-14.58,9.69-24.86,28.28-26,46.47-.05.75-.4,3.56.56,3.73ZM179.68,349.11c-6.47-10.64-15.3-19.41-23.28-28.79-2.18-.98-11.21,1.23-14.34,1.41-4.39.25-9.61-.11-14-.64-13.49-1.62-28.24-7.69-37.14-18.75,1.74,8.65,5.14,17.31,8.73,25.3,1.4,3.11,11.25,23.07,13.18,23.08,15.96-12.01,37.82-15.02,56.01-7.02,1.69.75,10.1,6.01,10.83,5.4ZM177.52,354.82c.06-.63.01-1.13-.27-1.71-.71-1.44-8.85-6.13-10.73-6.95-17.07-7.41-36.24-3.15-51.25,7.24,1.3,3.15,16.21,22.27,17.59,22.39,13.85-9.01,28.24-18.4,44.66-20.97ZM210.53,432.98c.62-2.82,1.74-5.48,2.88-8.1,1.26-2.88,4.98-9.03,5.54-11.29.31-1.24.31-1.64,0-2.87-.93-3.72-6.74-14.17-8.86-18.06-5.65-10.36-13.99-23.82-21.46-32.71-.53-.63-4.59-5.22-5.15-4.55.45,15.28-5.15,31.53-14.63,43.05-1.84,2.23-4.06,3.82-5.9,5.76-.45.47-.77.51-.57,1.38,4.34,1.81,7.79,5.78,11.73,8.47,3.7,2.52,34.8,20.2,36.43,18.93ZM372.9,404.45c-4.51-14.42-10.36-32.49-23.32-40.74-7.49-4.77-22.28-7.98-31.05-8.34-5.79-.24-11.51,1.46-17.07.03-.19.97.45,1.51.86,2.22,3.75,6.4,15.17,16.2,21.06,21.15,13.95,11.7,31.09,25.15,49.51,25.68ZM113.11,355.96c-1.27-.95-9.31,7.66-10.55,9.12-11.75,13.77-18.6,30.36-21.91,48.5,4.7-2.3,9.14-5.32,13.48-8.32,11.92-8.24,23.55-16.97,35-25.9l-16.02-23.39ZM179.64,358.29c-3.57.51-7.46.63-10.9,1.82-7.01,2.43-27.17,12.76-32.31,17.85-3.01,2.98.7,3.16,1.97,4.42,2.56,2.56,4.94,6.03,7.73,8.67,1.52,1.44,13.23,11.72,14.07,11.41,9.32-8.08,15.34-19.92,18.14-32.24.42-1.85,2.45-11.07,1.3-11.94ZM366.41,407.88c-6.57-.38-12.52-3.58-18.22-6.75-17.86-9.95-33.25-24.65-47.29-39.72-.61-.66-1.29-2.95-1.88-1.46-2.41,6.1-1.62,18.98.42,25.25,8.84,27.19,36.22,33.57,60.16,26.06,2.25-.7,5.35-1.32,6.81-3.37ZM156.95,403.89c-2.2-1.26-4.57-3.16-6.5-4.85-4.95-4.34-11.34-12.05-16.26-15.38-.72-.48-1.35-1.02-2.29-.8l-46.93,32.99c14.22.68,28.75,4.24,42.94,2.19,10.8-1.56,20.24-5.84,28.7-12.98l.34-1.18ZM218.63,440.42l-7.01-2.88c-.8,4.29-2.75,8.41-3.94,12.68-4.78,17.19-5.33,33.65-3.03,51.42,2.94,22.73,13.01,46.55,28.61,62.54-2.35-8.61-7.7-16.11-11.28-24.32-10.87-24.91-14.92-56.22-8.58-83.04,1.33-5.63,3.48-10.93,5.24-16.39Z"/>
  <path class="cls-1" d="M428.65,375.93c-10.9,15.3-25.83,28.61-40.74,39.49-40.07,29.23-97.59,37.97-145.01,28.23-6.52-1.34-12.96-3.22-19.37-4.97-.47-.57,5.03-11.89,5.86-13.5,7.08-13.67,15.62-27.21,23.09-40.7,8.37-9,18.95-16.09,29.49-21.97,3.67-2.05,9.36-4.96,13.34-5.92.87-.21.81-.07.75.79-.21,3.3-1.43,7.33-1.62,10.85-2.32,41.95,37.24,59.22,70.72,45.45,1.72-.71,10.74-5.24,11.27-6.37,1.29-2.76-2.6-12.77-3.8-15.97-10.69-28.65-24.88-37.46-54.12-39.36-5.27-.34-12.99-.92-17.04,2.85-.29-.38.87-2.63,1.16-3.05,1.53-2.19,10.65-8.82,13.28-10.53,33.73-21.89,74.58-28.16,108.23-48.5,3.04-1.84,10.03-7.89,12.37-8.65,1.68-.54-.4,3.69-.72,4.37-7.65,16.46-12.29,25.84-25.53,38.13-15.92,14.78-27.68,20.36-49.52,19.1-8.42-.49-19.37-4.41-27.36-2.01-.79.24-1.61.42-2.14,1.17,24.08,5.14,46.34,9.36,68.47-4.84,20.5-13.15,33.71-34.09,42.57-57.24.68-1.77,2.5-6.01,2.49-7.64-.02-2.95-3.59-1.3-5-1.28-25.08.45-49.68-12.17-74.01-7.27-29.2,5.88-59.18,31.96-62.06,64.65-.39,4.43.68,13.1-2.23,16.48-3.36,3.91-7.61,4.65-11.57,6.63-11.71,5.84-23.1,12.76-33.35,21.03,1.05-2.39,2.32-4.61,3.33-7.04,10.17-24.25,14.73-49.8,16.15-76.25,2.99,3.38,6.52,6.28,9.47,9.69,3.09,3.57,5.91,8.47,8.91,11.72,1.01,1.09,2.24,2.55,3.8,2.55.56-5.81-2.26-11.08-2.69-16.83-.69-9.24,2.93-19.69-2.17-28.22,9.31,1.65,18.63,4.4,28.01,1.86,7.57-2.05,16.73-7.84,22.03-13.87.5-.57.56-1.76.96-2.11,1.41-1.22,16.93-5.28,20.42-6.71,13.22-5.39,36.47-21.82,47.1-31.93,13.89-13.2,14.82-28.89,6.04-45.74-7.38-14.16-22.63-30.58-39.06-29.85,2.08-9.3,5.37-14.71,2.41-24.5-3.93-12.97-16.41-19.45-28.66-19.98-2.78-.12-6.9,1.11-9.08.44-1.16-.36-6.77-5.67-9.03-7.02-8.69-5.18-19.07-6.76-28.99-6-2.58.2-8.32,2.19-10.14,1.62-.87-.27-4.97-3.69-6.53-4.55-18.72-10.35-40.03-15.14-60.57-7.74-17.17,6.18-33.74,20-38.34,39.18-14-3.18-27,.16-38.56,8.7-8.65,6.39-15.27,15.53-22.82,23.3-3.26,3.36-13.81,11.7-15.02,15.54-.61,1.94-.78,3.8.4,5.54,5.54,4.81,11.24,10.02,15.94,15.71,9.81,11.9,15.61,26.58,24.7,39,19,25.98,45.72,40.86,76.53,45.13-9.25,11.36-17.99,26.77-34.11,26.5-1.56,2.06,2.03,2.97,3.54,3.16,22.66,2.72,44.64-1.17,60.09-19.95.71-.86,1.26-1.68,1.35-2.87l1.11.35c1.03,5.45,7.72,9.53,8.91,14.46,1.29,5.34-.64,20.4-1.46,26.45-2.44,18.08-9.46,47.29-18.2,62.97-1.35,2.42-3.93,4.89-5.42,7.4-4.53,7.61-7.49,14.7-11.38,22.24-5.03,9.75-12.16,18.33-15.29,29.24l-6.95-3.16c2.96-6.23,4.64-13.37,9.43-18.48l.8,1.71c-.11-2.02-.1-3.48.6-5.36,3.27-8.75,11.17-19.78,15.73-28.48,11.51-21.94,19.19-43.89,21.55-69.13.79-8.49.21-17.32,1.08-25.67.18-1.75,2.09-6.02,1.37-7.13-.42-.66-2.08-.38-1.37-2.85l-3.11,4.99c-1.65,5.86-1.02,12.09-1.21,18.12-.99,30.43-7.83,54.61-21.56,81.1-.99,1.92-14.11,26.2-15.24,25.29-7.73-17.9-18.18-34.5-30.04-49.64-6.48-8.27-12.9-16.89-19.48-25.1-4.27-5.33-9.24-10.09-13.56-15.38,5.69-15.49,4.84-34.42-2.68-49.08-8.42-16.43-23.79-26.66-40.65-31.32-11.01-3.04-22.47-3-33.78-3.47.8-12.07,3.09-23.85,6.11-35.49C119.64,73.62,252.9,9.08,364.17,66.54c82.26,42.47,128.06,141.9,101.97,236.24-7.06,25.52-19.01,49.34-34.76,69.99-7.33-.4-14.58.38-21.97.34-1.55,0-2.87-.61-4.28-.62-8.94-.06-17.88.09-26.81.03-.39.91.61,3.42,1.35,3.42h48.98Z"/>
  <path class="cls-1" d="M213.43,245.67c4.84,5.43,11.36,10.2,16.6,15.31.63.61,2.65,2.19,1.89,3.14-25.35-5.33-48.3-14.38-66.32-34.49-15.87-17.71-23.99-41.04-40.83-57.93-2.62-2.62-6.05-4.72-8.32-7.77-.45-2.41,10.09-11.23,12.11-13.31,13.49-13.85,27.53-33.16,48.13-34.26,1.75-.09,10.55.42,11.08,2.09.49,1.54-4.28,13.9-4.78,17.1-.87,5.68-1.1,15.15-1.16,21.02-.34,33.49,9.78,64.65,31.6,89.1Z"/>
  <path class="cls-1" d="M402.98,157.68c10.92,10.32,21.11,29.57,15.48,45.22-3.95,10.98-22.76,23.84-32.19,30.54-18.08,12.85-38.23,20.56-59.92,23.27-.14.95,1.31.61,1.91.59,1.27-.04,2.22-.43,3.3-.53.61-.06,1.94-.52,1.82.5-6.79,1.33-12.6,2.41-19.48.57,3.79-5.45,8.47-2.03,13.53-1.71.16-1.09-1.09-.31-1.59-.6-.06-.03.41-.76.02-1.39-1.02-1.64-3.98-1.57-3.25-3.37.28-.69,6.11-4.85,7.26-6.04,17.33-18.06,21.56-41.56,31.19-63.53,3.36-7.66,9.54-13.38,12.11-22.6,1.74-6.23-.36-11.21,7.04-11.98,8.46-.88,16.74,5.38,22.77,11.07Z"/>
  <path class="cls-1" d="M354.49,187.11c-.92,5.43-3.15,11.36-5.14,16.53-13.17,34.22-35.74,59.07-72.04,63.83-17.63,2.31-47.7-9.67-53.51-29.02-4.93-16.41,8.01-20.86,20.54-21.7,15.93-1.07,31.09,1.7,47.58-.62,21.99-3.08,47.27-11.55,62.57-29.02Z"/>
  <path class="cls-1" d="M325.28,184.26c4.26-11.66,3.31-24.08,3.76-36.25.76-20.4,3.38-38.7-16.93-50-4-2.23-10.77-3.32-12.28-8.45,12.06-1.17,23.31-1.31,33.91,5.61,14.12,9.2,22.59,26.78,21.28,44.3-1.31,17.51-13.82,38.58-29.75,44.79Z"/>
</svg>