<?xml version="1.0" encoding="UTF-8"?>
<svg id="Capa_1" data-name="Capa 1" xmlns="http://www.w3.org/2000/svg" viewBox="0 0 1024 1024">
  <defs>
    <style>
      .cls-1 {
        fill: none;
      }
    </style>
  </defs>
  <path class="cls-1" d="M1024,0v1024H0V0h1024ZM771.01,251c25.21-15.94,12.35-48.5-12.47-57.04s-50.39-8.19-74.84-22.16c-38.55-22.01-60.25-86.73-113.37-64.99-7.48,3.06-22.63,12.51-21.32,21.68,2.08,2.07,2.01-.96,2.98-1.97,6.79-7.11,24.66-12.72,34.43-12.44,22.04.64,59.94,46.67,81.29,59.72,19.4,11.86,41.26,20.62,64.3,21.18l-25.51-6.97c-22.26-7.31-37.11-16-54.5-31.5-19.23-17.14-34.89-41.77-62.74-45.26-11.3-1.41-20.44,3-30.24,7.73,14.18-13.08,34.41-15.74,51.68-7.17,14.82,7.35,24.06,22.3,35.29,33.71,23.34,23.72,36.52,32.97,69.03,41.97,20.57,5.69,58.25,6.54,64.31,31.69,3.18,13.17-3.41,20.65-8.31,31.82ZM304,615v-16.5c0-.53-3.08-4.48-3.5-4.48-.95.69-1.31,1.3-1.51,2.47-4.36,26.01,5.07,90.6-13.96,109.04-2.99,2.9-10.94,6.62-14.99,7.02-17.01,1.69-43.16.34-60.53-1.57-2.9-.32-17.67-2.22-18.51-4.49l1.99-.99c-3.64-3.53-4.65-9.08-5.03-13.97-1.05-13.4-.4-31.39.01-45.09,1-33.31,12.03-65.87,6.75-98.68-4.55-28.33-14.18-51.21-11.71-81.26,1.73-21.16,14.66-36.06,27-52.08,37.42,1.43,67.29,33.7,79,67.05,2.8,7.96,4.38,19.89,7.47,26.53.61,1.31,2.25,4.37,4,3.98,4.44-8.44,4.66-15.97,3.07-25.05-3.84-21.89-14.03-31.16-21.73-49.27-5.55-13.05-3.33-18.02,3.66-29.7s7.1-4.9,16.74-6.17c16.03-2.12,6.18-17.2,7.99-25.1.92-4.02,6.37-6.11,6.81-9.26.64-4.62-5.64-13.65-7.31-18.67-1.79-5.38-2.43-11.27-3.72-16.78,6.06,1.47,11.42-4.42,12.56-9.95,2.27-11.04-11.6-23.88-22.05-25.06-4.74-.53-10.2.39-15.05.02-10.97-.83-22.78-3.56-33.68-1.74-14.67,2.45-32.95,19.72-35.32,34.67-2.63,16.54,2.52,22.91,8.73,36.37,1.95,4.24,3.44,10.69,5.63,14.37.81,1.36,1.21,2.69,3.19,2.3,1.08-11.4-7.42-19.24-10.77-28.72-11.57-32.72,11.56-59.77,45.27-55.27l23.5,2.98c-24.5,1.68-51.43-10-64.52,17.98-10.25,21.91,1.57,31.2,8.29,49.77,4.73,13.07,1.63,10.03-4.2,19.32-.94,1.5-1.68,4.95-2.51,5.49-3.82,2.52-6.77-2.11-13.28,6.72-3.72,5.05-3.23,7.73-5.09,12.45-.29.74-8.97,9.53-10.64,11.82-37,50.82-10.56,107.75-16.06,164.94-3.13,32.51-17.37,67.86-18.97,99.02-1.1,21.38,14.57,16.65,29.05,23.93,5.89,19,17.73,34.95,26.46,52.54,6.88,13.87,10.5,28.56,21.48,40.01-20.42-7.13-42.23-7.94-63.23-12.26-13.69-2.82-27.14-8.87-41.22-8.66-13.93,7.25-10.35,29.04-7.55,41.92-7.17,1.55-10.69,3.22-16.53-1.95-12.34-10.91-11.63-32.59,2.25-41.88,3.42-.93,10.75,3.56,14.25,4.41,1.32.32,3.05.06,3.01-1.05-.15-4.7-28.28-14.09-33.44-14.54-13.2-1.15-23.45-.16-28.93,13.14-2.24,5.44-4.66,18.71-3.58,24.37.61,3.19,4.75,4.23,4.76,6.81.02,5.93-5.95,17.06-7.49,23.51-4.61,19.23,7.11,31.46,23.42,39,150.48,1.44,300.05-.13,450.77.19,7.88-1.87,17.93-3.03,25.01-7.02,5.71-3.22,5.51-8.33,8.67-13.3,3.97-6.23,11.33-13.06,17.82-16.67l2.21,32.3c.72,2.43,3.66,3.47,5.87,2.28,1.61-9.16,2.23-18.52,4.42-27.58,3.64-15.07,11.45-22.19,1.71-37.69-4.51-7.17-7.41-6.24-8.23-16.77-3.52-45.29,16.14-91.16,13.03-139.03-1.06-16.36-6.14-32.51-7.03-48.97-1.14-21.01.52-42.54.54-63.55,4.79,22.75,6.04,46.31,10.97,69.04,7.79,35.97,20.88,75.85,33.52,110.48,14.01,38.42,49.28,124.93,84.98,145.02,2.28,1.28,9.99,2.87,10.05,5.95-31.71,2.09-58.66-2.01-80.04-26.96-42.09-49.13-38.58-130.55-44.98-191.02-1.29-12.21-3.28-24.45-5.49-36.5l-.5,15.49c6.71,49.44,4.1,99.79,16.66,148.34,10.07,38.92,30.81,84.1,74.34,92.67l-100.01-.49,2.21,3.77c45.52.05,90.8,1.3,136.33,1.26,81.86-.07,164.3-.52,245.92-3.08,10.98-.34,22.5,1.21,33.2-1.8,1.9-.53,9.44-2.67,5.76-5.25-45.14-11.11-83.61-31.99-118.43-62.39-110.67-96.63-180.67-240.42-246.81-369.19-9.85-19.18-33.74-55.1-34.24-75.79-.6-24.97,18.39-47.25,25.8-70.29,8.17-25.38,4.69-60.39-16.74-78.23,30.72,3.82,28.28,44.36,23.01,66.99l5.9-17.58c-.2-5.13.59-10.93.13-15.96-.67-7.28-4.49-13.83-7.03-20.46,10.04,6.05,18.17,18.45,20.71,29.78.87,3.86,2.29,12.95,2.19,16.63-.19,6.86-8.4,17.22-9.67,25.34-1.88,12.01,1.02,21.38,10.74,28.78,6.79,5.17,21.85,8.28,22.01-3.52-11.38,10.78-27.51-3.15-28.87-15.61-1.47-13.39,7.69-22.66,8.87-34.9,2.2-22.68-10.28-41.83-27.99-54.48,15.25,5.35,30.66,24.75,35.78,39.71,7.32,21.38-6.14,28.73-5.68,44.69.11,3.94,5.01,16.03,9.9,14.1-14.11-14.22.26-28.56,1.9-43.11,2.52-22.4-16.66-42.75-32.89-55.38,12.82,2.63,26.35,3.44,38.21,9.28,14.42,7.1,32.65,24.13,28.58,42-.65,2.87-8.19,9.87-10.77,12.22-2.23,2.03-12.35,9-13.06,10.19-2.27,3.77.19,9.02,4.52,9.21.86.04,14.38-4.94,16.21-5.73,7.95-3.46,19.2-10.81,23.77-18.23,1.82-2.95,3.16-10.71,4.95-12.05,2.53-1.9,5.85.14,10.13-3.87,7.71-7.22,10.22-21.85,5.31-31.37-12.19-23.63-71.9-31.45-96.6-39.4-20.23-6.51-46.43-17.03-63.57-29.43-14.21-10.29-30.03-30.92-49.17-30.9-3.89,0-13.52,2.07-15.96,5.11-10.82,13.49,8.5,32.16,11.01,45.91.81,4.47-.43,11.25.6,14.39,1.15,3.5,5.22.11,6.84,1.1,2.53,1.54,7.55,12.24,9.99,15.07,8.29,9.61,20.77-6.17,23.04-5.08,3.64,3.83,5.01,9.37,4.97,14.56-2.35.07-2.62-1.98-5.34-1.96-12.16.11-27.7,4.84-38.18,10.94-15.01,8.73-28.62,17.36-33.01,34.99-5.66,22.73-15.65,67.87-9.51,89.58,1.72,6.08,5.68,9.75,12.04,9.95-23.51,33.65-57.72,75.07-42.03,119.05,1.36,3.81,4,11.82,8.51,6.42,5.49-6.58-.72-17.8-.5-25.4.21-7.19,5.18-17.22,10.02-22.56-1.26,7.07-5.64,16.14-2.72,23.24,1.22,2.97,4.26,5.29,6.78,2.31,2.31-2.73,9.63-27.86,9.84-32.19.24-5.04-3.18-11.44-2.46-14.39,1.78-7.28,20.11-21.75,25.56-27.96-1.65,4.6-6.02,8.19-7.69,12.8-5.67,15.72-3.42,54.92-2.35,72.74,2.16,35.79,6.29,76.28,11.18,111.82,3.73,27.13,10.84,51.41,12.85,79.15,2.21,30.61,4.28,58.42,2.02,89-.9,12.16-1,23.59-3.31,35.69-2.48,13-11.95,48.4-17.53,59.47-5.39,10.7-23.31,10.59-24.98,16.05-1,3.25,1.36,5-4.84,5.21-2.46.08-4.45-.93-6.82-.98-36.82-.68-73.72.61-110.53.04l13.02-4.46c8.95-15.44-14.89-14.08-24.24-16.81-15.56-4.55-30.47-25.87-39.03-38.97-2.82-4.31-4.56,2.87-8.32,4.24l-3.43,5.02c3.36.09,6.93-3.87,9.95-2.53,2.23.99,14.11,17.98,17.53,21.55,13.63,14.23,24.54,16.49,43.78,18.97l1.3,1.96c1.23,4.86-5.37,5.7-9.08,6.04-12.58,1.18-31.17.48-43.01-3.97-9.56-3.59-22.36-16.14-30.47-4.02,7.83-18.68,4.91-38.6,2-57.99,11.47,3.46,29.74,14.67,38.99,2.49,12.53-16.48,23.91-43.03,35.58-61.42,10.8-17,48.77-58.38,51.18-73.82,6.73-42.99-47.35-46.83-77.39-51.13-19.93-2.85-40.24-5.16-60.37-5.13ZM423.89,412.1c-23.51-2.69-20.08,5.79-15.88,23.9-16.88,4.26-28.22,4.91-37.81,20.7-2.73,4.49-6.19,15.13-8.49,18.02-.89,1.12-4.03,2.29-5.35,3.64-10.56,10.87-21.56,22.81-34.04,31.46-6.29,4.36-13.32,6.98-18.82,12.18-1.47-5.69-8.41-7.48-10.71-12.28-3.29-6.87-5.49-16.95-8.6-24.4-10.37-24.83-37.17-67.41-69.55-54.18-23.02,9.4-26.85,45.51-19.41,66.14,8.58,23.81,62.46,76.6,86.26,84.74,10.97,3.75,26.39,3.09,37.99,1.97,11.02-1.06,21.2-7.8,30.24-13.76,11.65-7.69,34.83-23.52,44.3-32.7,7.86-7.62,1.33-11.02,2-17.93,1.29-13.23,29.85-17.29,36.84-27.24,1.24-1.76,8.27-19.91,8.7-22.3,1.8-10.2,2.01-20.81-1.52-30.61l-7.03,1.55c10.52-10.02-.92-25.45-12.99-17.99.42-4.13,6.32-6.56,3.88-10.9ZM25,879h51.5c.22,0,1.83-1.73,1.5-1.99-17.52-2.12-35.66-.1-52.99-3.01v5Z"/>
  <path d="M304,615c20.13-.03,40.44,2.28,60.37,5.13,30.04,4.3,84.12,8.14,77.39,51.13-2.42,15.44-40.39,56.82-51.18,73.82-11.68,18.39-23.06,44.93-35.58,61.42-9.25,12.17-27.52.97-38.99-2.49,2.91,19.4,5.84,39.32-2,57.99,8.11-12.12,20.91.43,30.47,4.02,11.84,4.45,30.43,5.15,43.01,3.97,3.71-.35,10.31-1.19,9.08-6.04l-1.3-1.96c-19.24-2.48-30.15-4.75-43.78-18.97-3.42-3.57-15.3-20.56-17.53-21.55-3.02-1.34-6.59,2.62-9.95,2.53l3.43-5.02c3.76-1.36,5.5-8.55,8.32-4.24,8.56,13.1,23.48,34.42,39.03,38.97,9.35,2.73,33.19,1.37,24.24,16.81l-13.02,4.46c36.81.57,73.72-.71,110.53-.04,2.37.04,4.36,1.06,6.82.98,6.2-.21,3.84-1.96,4.84-5.21,1.68-5.46,19.59-5.35,24.98-16.05,5.58-11.07,15.05-46.47,17.53-59.47,2.3-12.1,2.41-23.54,3.31-35.69,2.26-30.58.19-58.38-2.02-89-2-27.74-9.12-52.02-12.85-79.15-4.89-35.54-9.02-76.03-11.18-111.82-1.08-17.82-3.32-57.01,2.35-72.74,1.66-4.61,6.03-8.2,7.69-12.8-5.44,6.22-23.78,20.68-25.56,27.96-.72,2.95,2.71,9.35,2.46,14.39-.21,4.33-7.54,29.46-9.84,32.19-2.52,2.98-5.56.66-6.78-2.31-2.92-7.1,1.46-16.17,2.72-23.24-4.84,5.33-9.81,15.37-10.02,22.56-.22,7.61,5.99,18.83.5,25.4-4.51,5.4-7.15-2.62-8.51-6.42-15.69-43.97,18.52-85.39,42.03-119.05-6.36-.2-10.32-3.87-12.04-9.95-6.14-21.72,3.86-66.86,9.51-89.58,4.39-17.63,18-26.26,33.01-34.99,10.48-6.1,26.03-10.83,38.18-10.94,2.72-.02,2.99,2.03,5.34,1.96.04-5.19-1.32-10.73-4.97-14.56-2.27-1.09-14.75,14.69-23.04,5.08-2.44-2.83-7.46-13.53-9.99-15.07-1.63-.99-5.69,2.41-6.84-1.1-1.03-3.14.21-9.92-.6-14.39-2.5-13.75-21.82-32.42-11.01-45.91,2.44-3.04,12.07-5.11,15.96-5.11,19.14-.01,34.96,20.62,49.17,30.9,17.13,12.4,43.34,22.92,63.57,29.43,24.7,7.95,84.41,15.76,96.6,39.4,4.91,9.53,2.4,24.15-5.31,31.37-4.28,4.01-7.6,1.97-10.13,3.87-1.79,1.34-3.13,9.11-4.95,12.05-4.57,7.42-15.82,14.77-23.77,18.23-1.83.79-15.35,5.77-16.21,5.73-4.34-.19-6.79-5.44-4.52-9.21.71-1.18,10.83-8.16,13.06-10.19,2.58-2.35,10.12-9.35,10.77-12.22,4.07-17.87-14.16-34.9-28.58-42-11.86-5.84-25.39-6.65-38.21-9.28,16.23,12.63,35.41,32.98,32.89,55.38-1.64,14.55-16.01,28.89-1.9,43.11-4.89,1.93-9.78-10.16-9.9-14.1-.46-15.95,13-23.31,5.68-44.69-5.12-14.96-20.53-34.36-35.78-39.71,17.71,12.65,30.19,31.8,27.99,54.48-1.19,12.24-10.34,21.51-8.87,34.9,1.37,12.46,17.49,26.38,28.87,15.61-.17,11.8-15.22,8.69-22.01,3.52-9.72-7.4-12.61-16.78-10.74-28.78,1.27-8.11,9.48-18.48,9.67-25.34.1-3.68-1.32-12.76-2.19-16.63-2.55-11.33-10.67-23.72-20.71-29.78,2.55,6.63,6.36,13.18,7.03,20.46.46,5.03-.33,10.83-.13,15.96l-5.9,17.58c5.27-22.62,7.71-63.17-23.01-66.99,21.43,17.85,24.92,52.85,16.74,78.23-7.42,23.03-26.41,45.32-25.8,70.29.5,20.68,24.39,56.61,34.24,75.79,66.14,128.78,136.13,272.57,246.81,369.19,34.82,30.4,73.29,51.29,118.43,62.39,3.68,2.58-3.86,4.72-5.76,5.25-10.69,3.01-22.21,1.46-33.2,1.8-81.62,2.56-164.05,3.01-245.92,3.08-45.53.04-90.81-1.21-136.33-1.26l-2.21-3.77,100.01.49c-43.52-8.57-64.27-53.76-74.34-92.67-12.56-48.54-9.95-98.9-16.66-148.34l.5-15.49c2.21,12.05,4.2,24.29,5.49,36.5,6.4,60.47,2.89,141.89,44.98,191.02,21.38,24.95,48.32,29.06,80.04,26.96-.06-3.08-7.77-4.67-10.05-5.95-35.7-20.1-70.96-106.61-84.98-145.02-12.64-34.64-25.72-74.51-33.52-110.48-4.93-22.73-6.18-46.29-10.97-69.04-.02,21.01-1.68,42.55-.54,63.55.89,16.46,5.97,32.61,7.03,48.97,3.11,47.87-16.54,93.73-13.03,139.03.82,10.53,3.72,9.59,8.23,16.77,9.74,15.5,1.94,22.61-1.71,37.69-2.19,9.06-2.81,18.42-4.42,27.58-2.21,1.19-5.15.16-5.87-2.28l-2.21-32.3c-6.49,3.61-13.85,10.44-17.82,16.67-3.17,4.97-2.96,10.07-8.67,13.3-7.08,4-17.13,5.16-25.01,7.02-150.72-.32-300.29,1.24-450.77-.19-16.31-7.54-28.03-19.77-23.42-39,1.55-6.44,7.51-17.57,7.49-23.51,0-2.58-4.15-3.62-4.76-6.81-1.08-5.66,1.35-18.93,3.58-24.37,5.47-13.31,15.73-14.3,28.93-13.14,5.16.45,33.29,9.84,33.44,14.54.04,1.11-1.69,1.37-3.01,1.05-3.5-.85-10.83-5.34-14.25-4.41-13.88,9.3-14.59,30.97-2.25,41.88,5.84,5.17,9.37,3.5,16.53,1.95-2.8-12.88-6.39-34.67,7.55-41.92,14.08-.21,27.54,5.85,41.22,8.66,20.99,4.32,42.81,5.13,63.23,12.26-10.97-11.45-14.59-26.15-21.48-40.01-8.73-17.59-20.58-33.53-26.46-52.54-14.48-7.28-30.14-2.55-29.05-23.93,1.6-31.17,15.84-66.51,18.97-99.02,5.5-57.19-20.94-114.12,16.06-164.94,1.67-2.29,10.34-11.08,10.64-11.82,1.87-4.72,1.37-7.4,5.09-12.45,6.5-8.83,9.46-4.21,13.28-6.72.83-.55,1.56-3.99,2.51-5.49,5.83-9.29,8.93-6.24,4.2-19.32-6.71-18.56-18.54-27.86-8.29-49.77,13.09-27.98,40.02-16.3,64.52-17.98l-23.5-2.98c-33.7-4.51-56.83,22.55-45.27,55.27,3.35,9.48,11.85,17.32,10.77,28.72-1.98.39-2.38-.93-3.19-2.3-2.18-3.69-3.67-10.14-5.63-14.37-6.2-13.47-11.35-19.83-8.73-36.37,2.37-14.95,20.65-32.22,35.32-34.67,10.9-1.82,22.71.91,33.68,1.74,4.85.37,10.31-.56,15.05-.02,10.45,1.18,24.32,14.02,22.05,25.06-1.14,5.53-6.5,11.43-12.56,9.95,1.28,5.51,1.93,11.4,3.72,16.78,1.67,5.02,7.95,14.05,7.31,18.67-.44,3.15-5.9,5.24-6.81,9.26-1.8,7.9,8.05,22.98-7.99,25.1-9.65,1.27-9.61-5.75-16.74,6.17s-9.21,16.64-3.66,29.7c7.7,18.11,17.89,27.38,21.73,49.27,1.59,9.07,1.37,16.61-3.07,25.05-1.75.39-3.39-2.67-4-3.98-3.09-6.64-4.67-18.57-7.47-26.53-11.72-33.35-41.58-65.61-79-67.05-12.34,16.01-25.26,30.92-27,52.08-2.46,30.04,7.16,52.93,11.71,81.26,5.28,32.81-5.76,65.37-6.75,98.68-.41,13.7-1.06,31.69-.01,45.09.38,4.89,1.39,10.44,5.03,13.97l-1.99.99c.83,2.27,15.61,4.18,18.51,4.49,17.37,1.9,43.52,3.26,60.53,1.57,4.05-.4,12-4.12,14.99-7.02,19.03-18.45,9.6-83.03,13.96-109.04.2-1.17.56-1.78,1.51-2.47.42,0,3.5,3.95,3.5,4.48v16.5ZM590,180.01c17.58,15.02,38.59,25.56,60.99,31.5,24.45,6.49,52.05,7.4,69.52,28.48,5.4,6.51,10.8,18.96,10.53,27.48-.34,10.52-17.14,20.99-24.04,28.04,1.89,6.14,8.18-1.08,11.3-2.71,10.84-5.68,24.65-10.2,28.01-23.99,8.85-36.28-50.71-51.03-74.69-61.93-31.6-14.36-46.9-26.31-72.61-48.39-11.7-10.05-27.69-25.62-43.98-22.44,4.02,13,18.12,35.5,31.73,39.6,2.61.79,5.58.73,8.45,1.65,24.35,7.78,45.5,20.7,68.78,30.72.23,1.86-2.04.79-3.04.55-6.84-1.64-17.49-5.99-24.21-8.79-15.58-6.49-30.08-15.75-46.73-19.76ZM627.99,210.01c-7.55-3.53-15.69-6.43-22.91-10.59-9.32-5.37-43.92-31.36-50.06-38.94-5.77-7.14-7.89-12.28-8.44-21.46-.07-1.16,1.44-3.31-1.07-1.02l-2.29,5.75c.22,12.62,12.05,24.76,14.33,37.19.91,4.98-.66,8.17-.55,13.05,10.41-4.98,15.33,18.63,21.08,17.52,7.66-1.47,12.14-12.95,20.95-4.05,3.8,3.84,3.41,9.38,3.98,14.53,5.03-4.42,9.91-9.24,16.73-10.76l8.26-1.23ZM562.99,163l-11.98-22.99c.03,8.77,5.71,17.24,11.98,22.99ZM752.01,262c13.86-6.7,18.6-21.49,8.5-34.01-15.42-19.11-68.72-25.43-93.28-33.72-14.03-4.73-27.33-11.25-41.23-16.26,1.24,2.39,4.1,3.83,6.33,5.16,25.52,15.29,53.97,23.28,80.34,35.66,17.28,8.11,38.23,22.27,39.34,43.17ZM947.99,872.01c-1.57.02-2.97-.49-4.38-1.13-48.27-21.99-77.11-43.1-113.13-81.87-89.73-96.59-143.86-215.43-187.25-338.75-7.12-20.24-15.15-43.67-20.74-64.26-6.53-24.01-5.12-35.22,4.03-57.99,13.48-33.55,28.2-47.74,17.99-88.02-3.24-12.77-13.92-31.2-29.5-22.98l5.99,1.98c-21.32.09-25.84,29.16-32.81,44.69-11.88,26.45-25.42,53.58-41.33,77.67-24.05,36.42-70.3,84.07-62.55,130.86l3.69,12.79c.15-6.64-1.51-12.78-1.03-19.53,1.15-16.01,12.09-23.44,18.58-36.42,4.2-8.41,3.97-12.16,10.95-20.05,13.79-15.59,31.91-30.69,45.48-46.52,22.23-25.92,37.78-60.73,57.62-88.38,3.22-4.49,6.96-8.75,11.4-12.09.31,1.82-.2,2.99-.92,4.57-2.57,5.69-9.8,13.7-13.5,19.5-17.13,26.9-33.73,56.17-51.77,82.23-14.09,20.37-31.92,30.66-33.8,57.2-4.67,65.98,14.15,125.01,24.71,188.27,3.58,21.44,4.14,43.05,5.29,64.71,1.48,27.92-1.08,67.59,7.28,92.72,4.1,12.34,10.97,23.1,20.7,31.79-7.6-46.7,14.48-93.84,12-140.49-1.16-21.71-7.17-43.15-8.03-64.97-1.36-34.39,5.67-70.11,4.48-104.04-.24-6.86-2.44-14.59-2.47-20.95-.03-5.98,2.24-13.72,2.09-20.08-.35-15.17-6.22-33.76-7.93-49.09-.13-1.17-1.03-5.37.87-5.37,4.39,14.83,4.78,30.28,7.14,45.37,2.23,14.22,8.47,27.7,12.37,41.63,9.09,32.51,16.65,62.46,28.76,94.24,48.38,127.05,149.4,300.05,306.26,293.75,1.21-.05,3.72.75,3.48-.99ZM587,240h-21c-.26-1.38.34-2.4,1.67-2.83,4.61-1.46,21.88.43,25.32-3.19.94-3.03-3.57-2.13-5.54-2.03-7.7.41-15.98,1.32-23.45,3.04-2.37-2.25,9.62-6,10.49-6h15.5l-9.99-1.01v-.98s12.99-1.02,12.99-1.02c0-1.81-4.3-1.07-5.48-.97-5.13.41-13.58,1.99-18.52,3.48-6.33,1.91-30.19,18.07-35.03,22.97-2.6,2.63-4.39,6.01-5.48,9.52-5.05,16.2-12.58,54.68-13.52,71.48-.29,5.18.29,31.6,9.06,29.17,7.76-5.28,12.6-13.66,17.95-21.14.06-19.35-3.66-40.85-2.01-60.02,1.98-23.06,27.65-27.28,46.03-31.48.08-1.78.5-2.12-1.49-1.99-5.34.33-11.53,1.34-16.92,1.96l-1.59-2.44c.97-4.66,18.58-.92,21-6.51ZM586.99,253c-2.85.63-5.53.7-8.06,2.43-4.74,3.24-25.7,25.91-27.15,30.85-3.25,11.07,2.95,22.61,2.23,33.72,1.25-.08,1.63-1.43,2.18-2.31,7.93-12.53,13.68-27.68,19.95-41.05,1.59-3.39,12.67-21.65,10.85-23.64ZM574,255.01c-6.56,2.24-18.97,7.99-23.94,12.55-5.17,4.74-5.73,15.19-6.1,21.9-.85,15.15,2.09,30.36,1.05,45.54l7.61-13.49c-2.37-10.1-7.86-24.29-5.16-34.54,2.75-10.44,20.07-23.23,26.53-31.96ZM307,330.99c4.29-.24,5.99-7.03,6.08-10.49.29-11.41-12.99-21.4-24.07-19.49.67,2.77,7.04-1.24,5.99,2.98-5.38-.9-10.43,1.58-15.51,1.99-15.83,1.28-29.1-6.59-43.42,3.58-12.77,9.07-14.54,24.83-10.1,38.97,3.41,10.86,11.89,20.28,10.04,32.47,11.5-8.85-2.06-24.52,8.5-32.99,6.86-5.51,12.34-1.46,17.48,3.99-1.09-8.97,8.5-11.36,14-16-.65,7.81-13.01,9.19-12.35,17.8.08,1.03.97,5.92,2.35,6.2-3.28-10.74,7.75-14.5,10.89-20.62,1.63-3.18,1.19-7.15,2.95-11.05,5.47-12.16,22.57-22.16,25.19-3.33,3.86-2.85,3.35-8.84.04-12.27-1.06-1.1-12.9-6.18-11.04-7.73,15.31-.13,23.27,13.85,13,25.98ZM300,325c-.26-10.86-12.09-5.16-13.99,2,4.35-2.5,9.16-2.07,13.99-2ZM285.18,330.74c-.33-.28-.21-1.22-.19-1.73h-.97c-1.06,4.3-.81,10.36-3.53,13.97-1.93,2.56-9.31,6.48-10.27,9.73-.88,2.96.16,7.34-.29,10.71-1.11,8.3-7.82,9.13-.43,18.61,4.66,5.97,15.64,11.21,22.9,13.11,27.08,7.09,6.68-13.99,15.59-24.66.93-1.11,2.97-1.54,3.56-2.46,1.66-2.61-4.07-12.14-5.24-15.78-2.44-7.6-2.77-15.88-6.36-23.19-2.81.29-12.99,3.25-14.75,1.71ZM264,369.99c-1.08-8.65-4.95-20.74-15.85-18.85-3.35,8.83,6.09,21.42,15.85,18.85ZM261.99,374c-5.94,2.72-11.36-2.03-15-6.49-1.29-1.59-1.34-4.09-2.98-4.5,1.19,5.12,1.6,10.8-.8,15.71-3.52,7.21-14.33,8.04-14.19,17.25,10.65,2.63,19.55,8.82,27.98,15.53l20.99,20.5c-7.4-11.44,1.92-24.31,8.98-33.49-11.04-5.75-24.14-9.7-24.99-24.5ZM255.58,416.42c-5.37-4.52-14.82-11.74-21.21-14.29-3.05-1.21-10.99-3.2-13.95-3.04-3.35.17-6.98,8.15-8.42,10.9,30.65,3.13,55.7,21.58,70.01,48.31.29.54,1.24.69,1.84.83l-.84,2.87,1.92-.97,7.06,17.97c-3.04-24.97-17.48-46.67-36.41-62.58ZM1005,869.01c-73.96-20.32-129.41-76.54-175.97-134.54-46.67-58.14-85.83-122.1-121.55-187.45l-77.47-148.02c45.16,131.86,95.12,266.87,189.48,372.01,32.73,36.47,66.83,70.96,112.84,90.16,25.13,10.49,33.95,8.03,60.22,8.78,3.77.11,9.85,3.24,12.46-.95ZM503.99,461.99c3.89-11.33,6.68-23.04,8-34.99-5.93,6.99-8.42,15.43-9.03,24.46l1.03,10.53ZM298.01,496c1.87-.46,1.84-1.58,1.78-3.18-.27-7.34-4.14-19.33-6.52-26.58-.4-1.22-.75-4.22-2.26-4.23l7,33.99ZM763.5,876h142.5c.26-1.33-1.83-1.6-2.74-1.75-5.83-.96-11.35-1.33-17.26-2.75-136.43-32.81-229.25-213.21-267.28-336.72-6.72-21.82-10.88-44.52-19.21-65.8-.78,0-.61,10.11-.54,11.55,5.04,104.81,26.01,202.32,71.18,297.82,12.4,26.22,36.19,74.54,62.98,87.02,7.96,3.71,22.29,10.02,30.37,10.63ZM187.99,600.99c5.38-15.02,6.06-33.42,3.74-49.22-2.01-13.67-7.4-27.69-9.59-41.41-1.69-10.6-1.69-21.21-2.14-31.88-.05-1.22.76-3.72-.99-3.48-.93,25.31,3.41,50.33,5.03,75.45.98,15.22-.44,30.47,2.09,45.91.19,1.17.31,4.66,1.85,4.63ZM557.99,714.99c-1.03-20.39-.23-41.15-2-61.48-1.15-13.2-4.21-27.33-5.3-40.7l-9.68-44.81c-.46,24.06,8.3,48.05,10.98,71.5,2.53,22.14,2.3,45.68,4.02,67.98l1.98,7.51ZM173.99,646.99c2.58-18.92,13.83-37.65,10-56.99l-10.72,53.77.72,3.22ZM302.01,619l1.03-11.54-2.03-9.45c-1.57,26.32,2.56,55.45-1.13,81.37-6.54,45.87-36.48,38.37-73.34,36.58-8.3-.4-16.35.72-24.54-1.95,17.49,19.8,34.14,42.79,45.86,66.63,3.07,6.25,7.02,14.32,9.16,20.84,2.49,7.59,2.85,16.52,5.5,23.5,2.45,6.46,8.71,11.47,10.96,18.04,4.29,12.54-2.26,21.26-13.95,11.95-13.29-10.6-15.59-32.95-26.31-45.95-32.36-9.19-66.63-10-98.74-20.59-2.76-.07-5.52,7.05-6.04,9.51-1.71,8.15,1.47,39.6,5.05,47.07,1.77,3.69,3.24,4.08,7.11,4.89,13.08,2.72,29.6,2.04,43.6,4.4,28.27,4.74,56.67,15.72,85.3,18.7,63.71,6.62,44.56-55.63,36.01-95.01l-1.5-.98c1.18,2.36-5.97,9.21-7.01,7.99-1.46-5.01,5.09-6.99,6.47-10.01,1.65-3.59-2.26-18.83-3.35-23.61-2.85-12.56-7.4-24.77-10.13-37.36l4.1.59,14.88,54.39c.67-2.3,2.52-4.64,4.04-6.46,5.58-6.71,8.45-10.53,12.36-18.64,3.38-7.02,5.03-14.9,9.6-21.41l-1.84.17-5.16,8.84c5.7-15.08,15.68-32.81,30-41,15.69-8.97,34.45-8.58,50.52-16.46,1.38,2.67-4.16,5.17-5.98,6.01-11.14,5.11-24.9,6.09-36.21,10.79-25.59,10.66-28.49,38.32-41.31,59.69l-15.87,23.19,5.81,25.85c7.39,1.16,29.3,12.97,35.11,7,18.12-28.05,32.69-58.56,52.55-85.45,15.14-20.51,55.6-56.05,23.33-80.54-17.5-13.28-35.29-7.67-53.89-1.02-22.88,8.18-50.35,25.42-64.87,45.13-3.23,4.39-5.11,10.02-9.16,13.33,1.01-12.1,14.17-23.75,22.98-31.51,20.39-17.97,46.67-32.46,74.01-35.5l-6.79-2.7c-27.69-5.35-56.23-6.45-83.77-12.11l-2.43,2.82ZM185.01,613.01c-1.33,15.61-9.36,32.39-10.89,47.62-.68,6.73-1.1,39.29,2.4,43.36,1.15,1.33,7.41,3.33,8.95,3.01,2.62-.53-.51-5.08-.97-6.99-4.9-20.65.38-55.33,1.54-77.46l-1.03-9.54ZM171.99,705c-3.64-13.24-1.66-27.03-.94-40.45.09-1.62.73-6.86-1.04-7.54-.41,10.73-5.03,21-5.88,31.62-.7,8.71.26,11.77,7.86,16.37ZM199,719.96v-5.46s-7-1.5-7-1.5c-1.06,1.06,3.99,10.3,6.99,7.99,1.66,12.9,11.52,24.41,17.53,35.99,6.47,12.46,11.76,26.81,18.31,38.69,5.69,10.32,14.55,17.52,23.16,25.33-1.61-13.81-7.67-27.28-13.81-39.68-7.27-14.67-28.82-50.44-41.23-59.78-1.17-.88-2.51-1.37-3.95-1.58ZM515,873h27.5c1.25,0,7.71-2.89,9.19-3.81,6.82-4.24,8.19-12.39,12.14-18.86,6.2-10.16,11.2-14.94,18.71-23.29,17.3-19.25-5.85-24.72-13.05-39.02-5.37-10.67-7.39-26.35-9.99-38.02-.86,18.4-1.37,35.28-5.78,53.23-2.66,10.82-12.79,48.68-17.89,56.11-2.06,3-5.55,5.62-8.83,7.17-1.01.47-14.84,4.03-12,6.5ZM83,776.01c-11.92,1.32-16.27,22.05-15.08,31.53.27,2.14,2.3,1.76,3.58,3.44,2.31.06,1.28-8.59,1.51-10.47,1.21-9.63,3.64-17.08,9.99-24.5ZM109.99,780.01l-19.48-4.01c-14.91,8.84-12.28,28.16-16.25,42.76s-15.5,24.8-4.67,39.15c7.28,9.65,17.89,17.73,30.7,14.87,13.86-3.09-4.49-14.06-5.34-15.48-5.3-8.93,11.27-21.21,18.05-24.8-16.27-8.54-21.02-30.08-11.43-45.44l8.43-7.05ZM596.73,835.73c4.26-2.81,4.19-15.12,1.45-19.4l-5.17-8.32c2.27,21.13-21.85,30.79-28,48.99,5.8-5.78,11.45-17.49,19.92-19.57,3.01-.74,9.59-.24,11.8-1.7ZM257.99,829.98l-13.98-13.98c2.61,11.41,8.41,22.79,14,32.99,1.8,0,1.08-4.33.97-5.48-.41-4.44-2.07-8.63-3.06-12.93l2.07-.61ZM106,876h153l-71.79-16.71c-15.67-3.96-35.93-2.06-51.02-5.98-8.52-2.21-7.93-12.83-10.14-19.85-.47-1.5.65-1.29-1.53-1.52-6.32-.68-12.58,4.82-17.04,9.04-19.05,17.98.42,12.09,2.33,25.79.65,4.69-1.26,5.87-3.8,9.23ZM263.01,834l.14,18.36c.63,1.95,3.49,2.1,5.22,1.52,4.99-1.66-.89-18.11-5.36-19.88ZM595.99,837.01l-5.89,3.65,1.91,18.34,3.98-21.99ZM367.99,874.01c-9.2.31-18.87-1.64-27.35-5.15-5.77-2.39-14.38-9.52-20.13-8.89-1.4.15-2.87.62-1.51,2.02l15.32,7.2,17.68,4.81c-13.59.7-27.58-2.57-38.51-10.75-5.4,5.34-10.64,10.81-18.5,12.26,13.43.65,27.08.84,40.55.54,2.36-.05,4.55-1.01,6.92-1.08,7.33-.21,14.72.34,22.05.04,1.21-.05,3.72.76,3.48-.99Z"/>
  <path d="M423.89,412.1c2.44,4.34-3.45,6.77-3.88,10.9,12.07-7.46,23.51,7.97,12.99,17.99l7.03-1.55c3.53,9.81,3.31,20.42,1.52,30.61-.42,2.4-7.46,20.54-8.7,22.3-6.99,9.95-35.55,14-36.84,27.24-.67,6.9,5.86,10.31-2,17.93-9.47,9.19-32.65,25.01-44.3,32.7-9.04,5.96-19.21,12.7-30.24,13.76-11.6,1.12-27.02,1.78-37.99-1.97-23.8-8.14-77.68-60.93-86.26-84.74-7.44-20.63-3.62-56.74,19.41-66.14,32.38-13.23,59.18,29.35,69.55,54.18,3.11,7.45,5.31,17.53,8.6,24.4,2.3,4.8,9.24,6.59,10.71,12.28,5.5-5.2,12.53-7.82,18.82-12.18,12.48-8.64,23.47-20.59,34.04-31.46,1.32-1.35,4.46-2.52,5.35-3.64,2.3-2.88,5.76-13.52,8.49-18.02,9.59-15.78,20.93-16.44,37.81-20.7-4.2-18.1-7.63-26.59,15.88-23.9ZM417,415.01c-10.23-1.59-9.74,8.66-5.49,14.99l5.49-14.99ZM431.76,436.76c4.24-8.62-3.36-13.53-11.28-9.79-5.28,9.97,2.59,13.47,11.28,9.79ZM298,578.99c-6.53-13.95-11.55-26.67-5.48-41.97,1.4-3.54,6.77-10.39,6.33-13.3-.48-3.09-6.2-7.03-8.26-9.81-11.97-16.14-15.62-25.91-23.1-43.9-10-24.06-39.04-53.26-62.51-25.54-8.03,9.49-6.65,17.6-8.9,29.16,8.11,21.7,19.38,39.56,35.41,56.38,10.18,10.68,49.36,46.76,62.08,48.92,1.45.25,2.98.04,4.43.06ZM410.87,442.88l-.36-3.87c-8.16,4.26-21.91,3.94-29.45,9.55-2.75,2.04-15.95,24.25-15.06,25.43,6.74,2.06,13.74,6.87,15.5,14.01,7.14-6.08,12.03-13.99,17.53-21.47,4.33-5.87,11.18-10.85,10.96-19.53-4.7.99-10.54,13.78-13.51,14.08s-9.25-5.79-7.02-9.11l21.41-9.09ZM428,446.01l-14-1.01c1.92,15.25-13.86,24.31-18.9,36.61-3.48,8.5-4.48,19.54.9,27.39-9.23-3.85-9.38-15.96-6.01-23.99-11.07,4.42-6.35,15.71-5.98,24.99l1-6.99,1.03,4.53-3.05,10.9,8.03,14.56c2.67.41,1.97-.49,2.02-2.52.24-9.78-5.87-10.87,2.99-20.95,5.94-6.76,19.1-9.54,27.12-14.88,3.23-2.15,8.67-6.4,7.45-10.66-.31-1.08-8.94-16.32-9.77-16.81-3.46-2.04-9.73,6.52-14.82,3.82-2.16-1.82,9.51-6.7,10.3-7.19,6.79-4.27,10.01-10.07,11.69-17.8ZM437.99,447l-3.06,2.54,2.07,8.45c3.86-2.28.43-7.55.98-10.99ZM401.99,450.01c-3.31-1.08-10.12,8.17-5.49,7.97.48-.02,6.24-7.24,5.49-7.97ZM431.99,454c-3.17-.69-1.98,2.24-1.76,4.27l6.76,12.73c1.07-6.62-4.74-10.8-5-17ZM432.99,482.99c.35-6.48.4-10.87-2.96-16.53-1.74-2.93-5.84-8.5-5.84-2.18l8.8,18.71ZM287.99,502l-17.98-36.99c3.24,13.36,8.81,26.65,17.98,36.99ZM379.99,497c.3-10.04-8.82-19.58-18.99-18.98l12.02,9.47,6.97,9.52ZM301,579.99c4.66,4.11,24.18-12.11,28.01-15.48,7.11-6.26,12.93-14.02,19.44-20.56,7.41-7.45,23.14-20.24,28.38-28.62,6.8-10.87-8.04-28.09-17.33-33.37-16.75,14.69-31.6,31.86-52.06,42.03-1.15,2.15,3.84,9.03,5.04,12.02.55,1.35,3.13,8.24,2.51,8.98l-2.98-1.01c-1.37,9.04-1.23,16.82-5.16,25.36-1.82,3.95-4.89,6.57-5.85,10.64ZM274,572.99c-24.28-19.3-48.84-39.3-65.81-65.68l-12.18-24.3c1.27,17.56,14.05,33.31,25.48,46.01,14.42,16.03,31.43,29.47,48.62,42.38l3.89,1.6ZM318,579.99c10.12-1.01,19.46-7.32,27.92-12.57,15.21-9.45,29.12-20.81,43-31.91-2.54-3.17-4.69-6.69-6.74-10.18-1.44-2.46-.97-6.73-4.2-3.85-2.53,2.26-5.03,6.86-7.46,9.54-8.79,9.68-20.89,21.54-30.5,30.5-6.95,6.48-14.76,12.33-22.01,18.48ZM303,531.5c-1.4,10.09,1.04,23.08,0,33.5-.75-1.04-4-1.78-4-2v-30c-8.61,11.01-5.25,24.65-1.27,36.77.36,1.08,1,5.11,2.75,4.22,7.55-13.88,11.59-30.11,4.5-44.98-1-.37-1.93,2.09-1.99,2.49Z"/>
  <path d="M771.01,251c4.9-11.17,11.48-18.64,8.31-31.82-6.06-25.14-43.75-25.99-64.31-31.69-32.51-9-45.68-18.25-69.03-41.97-11.23-11.41-20.47-26.36-35.29-33.71-17.28-8.57-37.51-5.91-51.68,7.17,9.81-4.73,18.94-9.15,30.24-7.73,27.85,3.49,43.51,28.11,62.74,45.26,17.39,15.5,32.24,24.2,54.5,31.5l25.51,6.97c-23.04-.56-44.9-9.32-64.3-21.18-21.35-13.06-59.25-59.09-81.29-59.72-9.77-.28-27.64,5.33-34.43,12.44-.97,1.01-.9,4.04-2.98,1.97-1.3-9.17,13.84-18.62,21.32-21.68,53.13-21.74,74.83,42.98,113.37,64.99,24.46,13.96,50.13,13.65,74.84,22.16s37.68,41.1,12.47,57.04Z"/>
  <path d="M25,879v-5c17.34,2.91,35.48.89,53,3.01.33.26-1.27,1.99-1.5,1.99H25Z"/>
  <path class="cls-1" d="M947.99,872.01c.24,1.74-2.27.94-3.48.99-156.86,6.3-257.87-166.7-306.26-293.75-12.1-31.78-19.66-61.74-28.76-94.24-3.9-13.93-10.14-27.41-12.37-41.63-2.36-15.09-2.75-30.54-7.14-45.37-1.9,0-1,4.2-.87,5.37,1.71,15.33,7.58,33.93,7.93,49.09.15,6.36-2.12,14.09-2.09,20.08.03,6.36,2.23,14.1,2.47,20.95,1.2,33.93-5.83,69.65-4.48,104.04.86,21.82,6.88,43.26,8.03,64.97,2.48,46.65-19.6,93.79-12,140.49-9.73-8.69-16.6-19.45-20.7-31.79-8.36-25.13-5.8-64.81-7.28-92.72-1.15-21.66-1.71-43.27-5.29-64.71-10.57-63.26-29.39-122.29-24.71-188.27,1.88-26.54,19.71-36.83,33.8-57.2,18.03-26.07,34.64-55.33,51.77-82.23,3.7-5.8,10.93-13.81,13.5-19.5.71-1.58,1.22-2.75.92-4.57-4.44,3.34-8.18,7.6-11.4,12.09-19.84,27.65-35.39,62.45-57.62,88.38-13.58,15.83-31.7,30.93-45.48,46.52-6.98,7.89-6.75,11.64-10.95,20.05-6.48,12.98-17.43,20.41-18.58,36.42-.48,6.75,1.17,12.9,1.03,19.53l-3.69-12.79c-7.74-46.79,38.5-94.44,62.55-130.86,15.91-24.08,29.45-51.21,41.33-77.67,6.98-15.53,11.5-44.6,32.81-44.69l-5.99-1.98c15.58-8.22,26.26,10.21,29.5,22.98,10.21,40.28-4.51,54.47-17.99,88.02-9.15,22.77-10.56,33.98-4.03,57.99,5.6,20.58,13.62,44.01,20.74,64.26,43.39,123.32,97.52,242.16,187.25,338.75,36.02,38.77,64.86,59.88,113.13,81.87,1.41.64,2.81,1.15,4.38,1.13Z"/>
  <path class="cls-1" d="M302.01,619l2.43-2.82c27.54,5.67,56.08,6.76,83.77,12.11l6.79,2.7c-27.34,3.03-53.62,17.53-74.01,35.5-8.8,7.76-21.97,19.42-22.98,31.51,4.05-3.31,5.92-8.94,9.16-13.33,14.52-19.71,41.99-36.95,64.87-45.13,18.6-6.65,36.39-12.25,53.89,1.02,32.27,24.49-8.19,60.02-23.33,80.54-19.85,26.9-34.43,57.41-52.55,85.45-5.8,5.97-27.71-5.85-35.11-7l-5.81-25.85,15.87-23.19c12.82-21.37,15.71-49.04,41.31-59.69,11.3-4.71,25.06-5.68,36.21-10.79,1.82-.84,7.36-3.33,5.98-6.01-16.08,7.88-34.83,7.49-50.52,16.46-14.32,8.19-24.3,25.92-30,41l5.16-8.84,1.84-.17c-4.57,6.5-6.22,14.39-9.6,21.41-3.9,8.12-6.78,11.93-12.36,18.64-1.52,1.83-3.37,4.17-4.04,6.46l-14.88-54.39-4.1-.59c2.72,12.59,7.27,24.81,10.13,37.36,1.09,4.79,5,20.02,3.35,23.61-1.39,3.02-7.93,5-6.47,10.01,1.03,1.22,8.19-5.64,7.01-7.99l1.5.98c8.56,39.37,27.7,101.63-36.01,95.01-28.63-2.98-57.03-13.96-85.3-18.7-14.01-2.35-30.53-1.67-43.6-4.4-3.88-.81-5.35-1.19-7.11-4.89-3.58-7.47-6.76-38.92-5.05-47.07.51-2.45,3.28-9.57,6.04-9.51,32.1,10.59,66.38,11.4,98.74,20.59,10.71,13,13.01,35.35,26.31,45.95,11.69,9.32,18.24.6,13.95-11.95-2.25-6.57-8.5-11.58-10.96-18.04-2.65-6.98-3.01-15.91-5.5-23.5-2.14-6.52-6.09-14.59-9.16-20.84-11.72-23.84-28.37-46.83-45.86-66.63,8.19,2.67,16.24,1.55,24.54,1.95,36.86,1.79,66.8,9.3,73.34-36.58,3.69-25.92-.44-55.05,1.13-81.37l2.03,9.45-1.03,11.54ZM418.84,669.15c-2.84-4.6-18.05-.59-22.6.58-24.47,6.33-48.32,19.39-72.7,27.3-8.97,2.91-18.15,5.86-27.54,6.97v2.99c29.62-1.9,55.98-17.51,83.47-27.03,6.53-2.26,22.19-7.94,28.1-8.9,1.78-.29,3.65-.02,5.44-.06.81,4.96-4.55,7.98-8.34,10.16-15.75,9.05-36.36,7.25-50.66,19.34l13.99-5.01c12.89-2.64,26.37-4.81,38.22-10.78,4.23-2.13,16.4-9.44,12.63-15.56Z"/>
  <path class="cls-1" d="M763.5,876c-8.08-.6-22.42-6.92-30.37-10.63-26.8-12.48-50.58-60.79-62.98-87.02-45.18-95.5-66.14-193.01-71.18-297.82-.07-1.44-.24-11.55.54-11.55,8.34,21.27,12.49,43.97,19.21,65.8,38.03,123.5,130.85,303.9,267.28,336.72,5.91,1.42,11.43,1.79,17.26,2.75.91.15,3,.42,2.74,1.75h-142.5Z"/>
  <path class="cls-1" d="M1005,869.01c-2.6,4.19-8.69,1.05-12.46.95-26.27-.75-35.09,1.71-60.22-8.78-46.01-19.2-80.11-53.69-112.84-90.16-94.35-105.14-144.32-240.15-189.48-372.01l77.47,148.02c35.72,65.35,74.87,129.31,121.55,187.45,46.56,58,102.01,114.22,175.97,134.54Z"/>
  <path class="cls-1" d="M590,180.01c16.65,4,31.15,13.26,46.73,19.76,6.72,2.8,17.37,7.15,24.21,8.79,1.01.24,3.27,1.31,3.04-.55-23.29-10.02-44.43-22.94-68.78-30.72-2.87-.92-5.83-.86-8.45-1.65-13.61-4.09-27.71-26.6-31.73-39.6,16.29-3.18,32.28,12.39,43.98,22.44,25.7,22.08,41.01,34.03,72.61,48.39,23.99,10.9,83.55,25.66,74.69,61.93-3.36,13.79-17.17,18.31-28.01,23.99-3.12,1.63-9.41,8.85-11.3,2.71,6.89-7.05,23.7-17.52,24.04-28.04.27-8.52-5.13-20.97-10.53-27.48-17.47-21.08-45.07-22-69.52-28.48-22.4-5.94-43.41-16.47-60.99-31.5ZM606,167.99c-4.21-4.16-11.47-4.79-16.99-5.98l8.48,4,8.51,1.98Z"/>
  <path class="cls-1" d="M587,240c-2.42,5.6-20.03,1.85-21,6.51l1.59,2.44c5.39-.62,11.58-1.63,16.92-1.96,1.99-.12,1.57.21,1.49,1.99-18.39,4.2-44.05,8.41-46.03,31.48-1.65,19.16,2.07,40.66,2.01,60.02-5.35,7.48-10.19,15.87-17.95,21.14-8.78,2.43-9.36-23.99-9.06-29.17.94-16.79,8.47-55.27,13.52-71.48,1.09-3.5,2.88-6.88,5.48-9.52,4.84-4.9,28.7-21.05,35.03-22.97,4.93-1.49,13.39-3.07,18.52-3.48,1.18-.09,5.47-.84,5.48.97l-12.99,1.02v.98s10,1.01,10,1.01h-15.5c-.87,0-12.86,3.75-10.49,6,7.47-1.72,15.75-2.63,23.45-3.04,1.97-.1,6.48-1.01,5.54,2.03-3.44,3.62-20.71,1.72-25.32,3.19-1.33.42-1.93,1.45-1.67,2.83h21Z"/>
  <path class="cls-1" d="M307,330.99c10.27-12.14,2.32-26.12-13-25.98-1.86,1.54,9.98,6.63,11.04,7.73,3.31,3.43,3.83,9.41-.04,12.27-2.62-18.83-19.72-8.84-25.19,3.33-1.76,3.91-1.31,7.87-2.95,11.05-3.14,6.12-14.17,9.88-10.89,20.62-1.38-.28-2.27-5.17-2.35-6.2-.67-8.6,11.7-9.98,12.35-17.8-5.5,4.64-15.09,7.03-14,16-5.14-5.45-10.63-9.5-17.48-3.99-10.55,8.48,3,24.15-8.5,32.99,1.84-12.19-6.63-21.61-10.04-32.47-4.44-14.14-2.67-29.9,10.1-38.97,14.32-10.17,27.59-2.3,43.42-3.58,5.08-.41,10.14-2.89,15.51-1.99,1.05-4.22-5.32-.21-5.99-2.98,11.08-1.91,24.36,8.08,24.07,19.49-.09,3.46-1.79,10.25-6.08,10.49Z"/>
  <path class="cls-1" d="M106,876c2.54-3.36,4.45-4.55,3.8-9.23-1.91-13.7-21.37-7.82-2.33-25.79,4.47-4.21,10.72-9.72,17.04-9.04,2.18.23,1.06.02,1.53,1.52,2.21,7.03,1.62,17.64,10.14,19.85,15.09,3.92,35.35,2.02,51.02,5.98l71.79,16.71H106Z"/>
  <path class="cls-1" d="M515,873c-2.84-2.48,10.99-6.03,12-6.5,3.28-1.55,6.77-4.16,8.83-7.17,5.1-7.43,15.22-45.3,17.89-56.11,4.42-17.95,4.92-34.82,5.78-53.23,2.6,11.68,4.61,27.36,9.99,38.02,7.2,14.3,30.36,19.77,13.05,39.02-7.51,8.35-12.51,13.13-18.71,23.29-3.95,6.47-5.31,14.63-12.14,18.86-1.48.92-7.94,3.81-9.19,3.81h-27.5Z"/>
  <path class="cls-1" d="M109.99,780.01l-8.43,7.05c-9.58,15.36-4.84,36.9,11.43,45.44-6.77,3.59-23.34,15.87-18.05,24.8.84,1.42,19.2,12.39,5.34,15.48-12.81,2.86-23.42-5.23-30.7-14.87-10.83-14.35.79-24.84,4.67-39.15s1.34-33.92,16.25-42.76l19.48,4.01Z"/>
  <path class="cls-1" d="M285.18,330.74c1.76,1.54,11.94-1.42,14.75-1.71,3.59,7.31,3.91,15.59,6.36,23.19,1.17,3.64,6.9,13.18,5.24,15.78-.59.93-2.63,1.35-3.56,2.46-8.91,10.67,11.49,31.75-15.59,24.66-7.25-1.9-18.24-7.13-22.9-13.11-7.39-9.48-.67-10.31.43-18.61.45-3.37-.59-7.75.29-10.71.97-3.24,8.35-7.17,10.27-9.73,2.72-3.61,2.47-9.68,3.53-13.97h.97c-.02.52-.13,1.45.19,1.73Z"/>
  <path class="cls-1" d="M752.01,262c-1.11-20.9-22.06-35.06-39.34-43.17-26.37-12.37-54.82-20.37-80.34-35.66-2.23-1.33-5.09-2.77-6.33-5.16,13.9,5.01,27.2,11.53,41.23,16.26,24.56,8.29,77.86,14.61,93.28,33.72,10.1,12.51,5.36,27.31-8.5,34.01Z"/>
  <path class="cls-1" d="M627.99,210.01l-8.26,1.23c-6.82,1.52-11.7,6.35-16.73,10.76-.57-5.15-.18-10.69-3.98-14.53-8.81-8.9-13.29,2.58-20.95,4.05-5.75,1.11-10.68-22.51-21.08-17.52-.11-4.88,1.46-8.08.55-13.05-2.27-12.44-14.11-24.57-14.33-37.19l2.29-5.75c2.52-2.29,1-.15,1.07,1.02.55,9.18,2.67,14.32,8.44,21.46,6.14,7.59,40.73,33.57,50.06,38.94,7.23,4.16,15.36,7.06,22.91,10.59Z"/>
  <path class="cls-1" d="M261.99,374c.85,14.8,13.95,18.75,24.99,24.5-7.06,9.18-16.38,22.05-8.98,33.49l-20.99-20.5c-8.44-6.7-17.34-12.89-27.98-15.53-.14-9.21,10.67-10.03,14.19-17.25,2.39-4.91,1.98-10.58.8-15.71,1.64.42,1.69,2.92,2.98,4.5,3.64,4.46,9.06,9.2,15,6.49Z"/>
  <path class="cls-1" d="M199,719.96c1.44.21,2.78.69,3.95,1.58,12.41,9.34,33.96,45.11,41.23,59.78,6.14,12.4,12.2,25.87,13.81,39.68-8.61-7.82-17.47-15.01-23.16-25.33-6.55-11.88-11.84-26.23-18.31-38.69-6.01-11.58-15.87-23.08-17.53-35.99-3,2.32-8.05-6.93-6.99-7.99l7,1.5v5.46Z"/>
  <path class="cls-1" d="M586.99,253c1.82,1.99-9.26,20.25-10.85,23.64-6.27,13.37-12.02,28.52-19.95,41.05-.56.88-.94,2.22-2.18,2.31.72-11.11-5.48-22.65-2.23-33.72,1.45-4.93,22.42-27.61,27.15-30.85,2.53-1.73,5.21-1.8,8.06-2.43Z"/>
  <path class="cls-1" d="M255.58,416.42c18.93,15.91,33.37,37.61,36.41,62.58l-7.06-17.97-1.92.97.84-2.87c-.6-.14-1.55-.29-1.84-.83-14.31-26.72-39.36-45.18-70.01-48.31,1.44-2.75,5.08-10.73,8.42-10.9,2.96-.15,10.9,1.83,13.95,3.04,6.39,2.55,15.84,9.77,21.21,14.29Z"/>
  <path class="cls-1" d="M185.01,613.01l1.03,9.54c-1.16,22.13-6.44,56.81-1.54,77.46.45,1.91,3.59,6.46.97,6.99-1.54.31-7.8-1.68-8.95-3.01-3.5-4.07-3.07-36.63-2.4-43.36,1.53-15.22,9.56-32.01,10.89-47.62Z"/>
  <path class="cls-1" d="M187.99,600.99c-1.54.03-1.66-3.46-1.85-4.63-2.53-15.44-1.11-30.69-2.09-45.91-1.62-25.13-5.96-50.14-5.03-75.45,1.74-.23.94,2.27.99,3.48.44,10.67.44,21.27,2.14,31.88,2.19,13.72,7.59,27.73,9.59,41.41,2.32,15.8,1.64,34.2-3.74,49.22Z"/>
  <path class="cls-1" d="M574,255.01c-6.46,8.73-23.78,21.52-26.53,31.96-2.7,10.24,2.79,24.44,5.16,34.54l-7.61,13.49c1.03-15.17-1.9-30.38-1.05-45.54.38-6.71.93-17.16,6.1-21.9,4.97-4.56,17.38-10.31,23.94-12.55Z"/>
  <path class="cls-1" d="M367.99,874.01c.23,1.74-2.27.94-3.48.99-7.33.3-14.72-.26-22.05-.04-2.37.07-4.55,1.03-6.92,1.08-13.47.3-27.12.11-40.55-.54,7.85-1.45,13.1-6.92,18.5-12.26,10.93,8.19,24.92,11.45,38.51,10.75l-17.68-4.81-15.32-7.2c-1.37-1.4.11-1.86,1.51-2.02,5.75-.63,14.36,6.5,20.13,8.89,8.48,3.51,18.16,5.46,27.35,5.15Z"/>
  <path class="cls-1" d="M557.99,714.99l-1.98-7.51c-1.72-22.3-1.49-45.84-4.02-67.98-2.68-23.45-11.44-47.45-10.98-71.5l9.68,44.81c1.1,13.37,4.15,27.5,5.3,40.7,1.77,20.33.97,41.09,2,61.48Z"/>
  <path class="cls-1" d="M596.73,835.73c-2.21,1.46-8.79.96-11.8,1.7-8.47,2.08-14.11,13.79-19.92,19.57,6.15-18.21,30.27-27.86,28-48.99l5.17,8.32c2.74,4.28,2.81,16.6-1.45,19.4Z"/>
  <path class="cls-1" d="M264,369.99c-9.76,2.57-19.2-10.02-15.85-18.85,10.9-1.89,14.77,10.2,15.85,18.85Z"/>
  <path class="cls-1" d="M171.99,705c-7.6-4.6-8.56-7.66-7.86-16.37.85-10.62,5.46-20.89,5.88-31.62,1.77.69,1.12,5.93,1.04,7.54-.72,13.42-2.7,27.21.94,40.45Z"/>
  <path class="cls-1" d="M257.99,829.98l-2.07.61c.99,4.29,2.65,8.49,3.06,12.93.11,1.14.83,5.48-.97,5.48-5.59-10.2-11.39-21.58-14-32.99l13.98,13.98Z"/>
  <path class="cls-1" d="M83,776.01c-6.35,7.43-8.78,14.88-9.99,24.5-.24,1.88.79,10.53-1.51,10.47-1.28-1.68-3.31-1.3-3.58-3.44-1.19-9.48,3.16-30.21,15.08-31.53Z"/>
  <path class="cls-1" d="M173.99,646.99l-.72-3.22,10.72-53.77c3.83,19.33-7.42,38.07-10,56.99Z"/>
  <path class="cls-1" d="M503.99,461.99l-1.03-10.53c.61-9.03,3.1-17.47,9.03-24.46-1.32,11.95-4.11,23.67-8,34.99Z"/>
  <path class="cls-1" d="M263.01,834c4.47,1.77,10.35,18.23,5.36,19.88-1.73.57-4.59.42-5.22-1.52l-.14-18.36Z"/>
  <path class="cls-1" d="M298.01,496l-7-33.99c1.51,0,1.86,3.01,2.26,4.23,2.38,7.25,6.25,19.24,6.52,26.58.06,1.61.09,2.72-1.78,3.18Z"/>
  <path class="cls-1" d="M300,325c-4.83-.07-9.65-.49-13.99,2,1.9-7.17,13.74-12.86,13.99-2Z"/>
  <polygon class="cls-1" points="595.99 837.01 592.01 858.99 590.1 840.65 595.99 837.01"/>
  <path class="cls-1" d="M562.99,163c-6.27-5.76-11.95-14.23-11.98-22.99l11.98,22.99Z"/>
  <path class="cls-1" d="M298,578.99c-1.46-.01-2.98.19-4.43-.06-12.72-2.16-51.9-38.24-62.08-48.92-16.03-16.82-27.3-34.68-35.41-56.38,2.26-11.56.87-19.67,8.9-29.16,23.47-27.72,52.51,1.48,62.51,25.54,7.48,17.99,11.12,27.76,23.1,43.9,2.06,2.78,7.78,6.72,8.26,9.81.45,2.9-4.92,9.75-6.33,13.3-6.06,15.3-1.05,28.02,5.48,41.97Z"/>
  <path class="cls-1" d="M301,579.99c.96-4.07,4.04-6.69,5.85-10.64,3.93-8.54,3.79-16.32,5.16-25.36l2.98,1.01c.62-.75-1.96-7.63-2.51-8.98-1.21-2.99-6.19-9.87-5.04-12.02,20.46-10.17,35.31-27.35,52.06-42.03,9.29,5.28,24.13,22.49,17.33,33.37-5.24,8.38-20.96,21.17-28.38,28.62-6.51,6.55-12.33,14.3-19.44,20.56-3.83,3.37-23.34,19.59-28.01,15.48Z"/>
  <path class="cls-1" d="M428,446.01c-1.68,7.72-4.9,13.53-11.69,17.8-.79.5-12.45,5.38-10.3,7.19,5.09,2.7,11.36-5.86,14.82-3.82.84.49,9.46,15.73,9.77,16.81,1.22,4.27-4.22,8.51-7.45,10.66-8.02,5.33-21.19,8.12-27.12,14.88-8.86,10.08-2.75,11.18-2.99,20.95-.05,2.03.64,2.93-2.02,2.52l-8.03-14.56,3.05-10.9-1.03-4.53-1,6.99c-.37-9.29-5.09-20.57,5.98-24.99-3.37,8.03-3.22,20.14,6.01,23.99-5.37-7.85-4.38-18.89-.9-27.39,5.04-12.3,20.81-21.36,18.9-36.61l14,1.01ZM417,486.99l7-1.48c4.22-3.59-4.19-15.61-10-13.5.5,1.86,2.94,2.1,4.03,3.46,4.75,5.9-2.1,10.54-1.02,11.53Z"/>
  <path class="cls-1" d="M410.87,442.88l-21.41,9.09c-2.23,3.32,4.18,9.39,7.02,9.11s8.82-13.09,13.51-14.08c.22,8.68-6.63,13.66-10.96,19.53-5.51,7.47-10.39,15.39-17.53,21.47-1.76-7.14-8.75-11.95-15.5-14.01-.89-1.18,12.31-23.39,15.06-25.43,7.55-5.61,21.29-5.29,29.45-9.55l.36,3.87Z"/>
  <path class="cls-1" d="M318,579.99c7.25-6.15,15.06-11.99,22.01-18.48,9.61-8.96,21.71-20.82,30.5-30.5,2.43-2.68,4.93-7.28,7.46-9.54,3.23-2.88,2.75,1.39,4.2,3.85,2.05,3.49,4.2,7.01,6.74,10.18-13.88,11.11-27.79,22.46-43,31.91-8.46,5.25-17.79,11.57-27.92,12.57Z"/>
  <path class="cls-1" d="M303,531.5c.06-.41.98-2.86,1.99-2.49,7.09,14.87,3.05,31.1-4.5,44.98-1.75.89-2.4-3.14-2.75-4.22-3.99-12.12-7.35-25.76,1.27-36.77v30c0,.22,3.25.96,4,2,1.04-10.42-1.4-23.41,0-33.5Z"/>
  <path class="cls-1" d="M274,572.99l-3.89-1.6c-17.19-12.91-34.21-26.35-48.62-42.38-11.42-12.7-24.2-28.45-25.48-46.01l12.18,24.3c16.97,26.38,41.52,46.38,65.81,65.68Z"/>
  <path class="cls-1" d="M431.76,436.76c-8.7,3.68-16.57.18-11.28-9.79,7.93-3.74,15.52,1.17,11.28,9.79Z"/>
  <path class="cls-1" d="M379.99,497l-6.97-9.52-12.02-9.47c10.16-.6,19.29,8.94,18.99,18.98Z"/>
  <path class="cls-1" d="M287.99,502c-9.17-10.35-14.74-23.63-17.98-36.99l17.98,36.99Z"/>
  <path class="cls-1" d="M417,415.01l-5.49,14.99c-4.25-6.33-4.74-16.58,5.49-14.99Z"/>
  <path class="cls-1" d="M432.99,482.99l-8.8-18.71c0-6.33,4.1-.76,5.84,2.18,3.36,5.66,3.3,10.05,2.96,16.53Z"/>
  <path class="cls-1" d="M431.99,454c.26,6.2,6.07,10.37,5,17l-6.76-12.73c-.22-2.03-1.41-4.97,1.76-4.27Z"/>
  <path class="cls-1" d="M437.99,447c-.56,3.44,2.87,8.71-.98,10.99l-2.07-8.45,3.06-2.54Z"/>
  <path class="cls-1" d="M401.99,450.01c.75.73-5.01,7.95-5.49,7.97-4.63.19,2.19-9.06,5.49-7.97Z"/>
  <path d="M418.84,669.15c3.78,6.12-8.39,13.42-12.63,15.56-11.85,5.97-25.33,8.14-38.22,10.78l-13.99,5.01c14.31-12.08,34.92-10.29,50.66-19.34,3.79-2.18,9.15-5.2,8.34-10.16-1.79.04-3.66-.23-5.44.06-5.91.96-21.57,6.64-28.1,8.9-27.49,9.52-53.85,25.14-83.47,27.03v-2.99c9.39-1.11,18.58-4.06,27.54-6.97,24.38-7.91,48.23-20.97,72.7-27.3,4.55-1.18,19.76-5.19,22.6-.58Z"/>
  <path d="M606,167.99l-8.51-1.98-8.48-4c5.53,1.19,12.79,1.82,16.99,5.98Z"/>
  <path d="M417,486.99c-1.08-.99,5.77-5.63,1.02-11.53-1.09-1.36-3.53-1.6-4.03-3.46,5.82-2.11,14.22,9.91,10,13.5l-7,1.48Z"/>
</svg>