<?xml version="1.0" encoding="UTF-8"?>
<svg id="Capa_1" data-name="Capa 1" xmlns="http://www.w3.org/2000/svg" viewBox="0 0 382.25 298.77">
  <defs>
    <style>
      .cls-1 {
        letter-spacing: 0em;
      }

      .cls-2 {
        font-size: 48.39px;
      }

      .cls-2, .cls-3, .cls-4, .cls-5 {
        fill: #1d1d1b;
        font-family: Cinzel-SemiBold, Cinzel;
        font-weight: 600;
      }

      .cls-6 {
        letter-spacing: 0em;
      }

      .cls-7 {
        letter-spacing: 0em;
      }

      .cls-8 {
        letter-spacing: 0em;
      }

      .cls-9 {
        fill: none;
      }

      .cls-10 {
        letter-spacing: 0em;
      }

      .cls-11 {
        letter-spacing: -.01em;
      }

      .cls-12 {
        letter-spacing: 0em;
      }

      .cls-13 {
        letter-spacing: 0em;
      }

      .cls-3 {
        font-size: 21px;
      }

      .cls-14 {
        letter-spacing: 0em;
      }

      .cls-15 {
        letter-spacing: 0em;
      }

      .cls-16 {
        fill: #010101;
      }

      .cls-4 {
        font-size: 14px;
      }

      .cls-17 {
        letter-spacing: 0em;
      }

      .cls-18 {
        letter-spacing: 0em;
      }

      .cls-5 {
        font-size: 14.08px;
      }
    </style>
  </defs>
  <text class="cls-2" transform="translate(130.22 41.13) scale(.95 1)"><tspan x="0" y="0">Mar</tspan><tspan class="cls-1" x="108.59" y="0">z</tspan><tspan x="137.92" y="0">o</tspan></text>
  <text class="cls-3" transform="translate(51.12 109.5)"><tspan class="cls-14" x="0" y="0">2</tspan><tspan x="12.33" y="0">4</tspan></text>
  <text class="cls-3" transform="translate(101.8 109.5)"><tspan x="0" y="0">25</tspan></text>
  <text class="cls-3" transform="translate(151.53 109.5)"><tspan x="0" y="0">26</tspan></text>
  <text class="cls-3" transform="translate(202.41 109.5)"><tspan x="0" y="0">27</tspan></text>
  <text class="cls-3" transform="translate(252.01 109.5)"><tspan x="0" y="0">28</tspan></text>
  <text class="cls-3" transform="translate(302.89 109.5)"><tspan class="cls-18" x="0" y="0">2</tspan><tspan x="12.43" y="0">9</tspan></text>
  <text class="cls-3" transform="translate(358.02 109.5) scale(.71 1)"><tspan class="cls-10" x="0" y="0">3</tspan><tspan x="11.53" y="0">0</tspan></text>
  <g>
    <g>
      <text class="cls-5" transform="translate(99.8 71.17)"><tspan x="0" y="0">mar</tspan></text>
      <text class="cls-5" transform="translate(149.99 71.17)"><tspan x="0" y="0">M</tspan><tspan class="cls-6" x="13.32" y="0">i</tspan><tspan x="18.14" y="0">e</tspan></text>
      <text class="cls-5" transform="translate(199.97 71.17)"><tspan class="cls-8" x="0" y="0">j</tspan><tspan x="4.62" y="0">ue</tspan></text>
      <text class="cls-5" transform="translate(250.1 71.17)"><tspan class="cls-17" x="0" y="0">v</tspan><tspan class="cls-6" x="9.15" y="0">i</tspan><tspan class="cls-7" x="13.98" y="0">e</tspan></text>
      <text class="cls-5" transform="translate(299.95 71.17)"><tspan class="cls-6" x="0" y="0">s</tspan><tspan x="6.94" y="0">ab</tspan></text>
      <text class="cls-5" transform="translate(50 72.46)"><tspan class="cls-11" x="0" y="0">l</tspan><tspan class="cls-6" x="7.46" y="0">u</tspan><tspan x="17.3" y="0">n</tspan></text>
    </g>
    <text class="cls-4" transform="translate(348.64 71.66)"><tspan class="cls-12" x="0" y="0">d</tspan><tspan class="cls-15" x="10.64" y="0">o</tspan><tspan class="cls-13" x="21.41" y="0">m</tspan></text>
  </g>
  <g>
    <path class="cls-16" d="M337.15,112.26c-3.12,3.5-6.37,5.5-10.19,8.1-3.74,2.54-7.39,5.26-11.29,7.55-.5.29-1.12.92-1.69.93-.13,0-.17.04-.26-.1.29-.42.81-.53,1.18-.78,2.13-1.44,4.33-2.81,6.45-4.28,1.75-1.22,3.42-2.64,5.16-3.85,1.39-.96,2.96-1.82,4.35-2.78,7.53-5.2,14.44-14.06,11.25-23.58l-.45-.89c.3,1.48.63,2.88.58,4.41-.24,7.9-6.71,17.22-13.59,21.14-4.77,2.72-10.99,5.47-14.98,9.19-.33.31-.68.77-.75,1.22.62.1.71.5,1.12.85.51.42,1.18.69,1.49,1.33l-1.98-1.18-.83-.81c-1.28.68-.19.91.4,1.3,1.27.83,2.55,1.59,3.84,2.39.12.08.28.32.39.19l-1.16-1.17c.15-.03.24.04.36.09.44.21,3.65,2.7,3.99,3.08s.48.87.52,1.35l-1.24-1.17c-2.17-1.54-4.61-2.69-6.84-4.15l-.19.03c-.39.4-.88.68-1.3,1.04-.43.37-.91,1.02-1.31,1.34-.33.26-.69.44-.78-.12-.13-.83.27-2.2.55-3.01.11-.32.52-.91.4-1.15-.07-.13-.84-.55-1.03-.69-1.04-.78-2.24-1.67-3.11-2.62-.6-.66-1.16-1.6-1.82-2.18-.71-.62-1.74-1.16-2.51-1.75-6.23-4.69-13.63-12.21-15.18-19.99-2.06-10.31,5.74-19.71,16.7-18.67,4.28.41,8.41,2.72,11.32,5.73,2.8-3.02,6.5-5.4,10.76-5.81,5.65-.53,10.64,1.12,14.2,5.49,6.62,8.14,3.85,16.77-2.55,23.95h0ZM311.65,128.61l.33-.93c.81.08,1.08-.55,1.62-1,4.54-3.78,9.61-6.08,14.66-9.02,7.93-4.6,15.65-15.93,12.76-25.23-2.16-6.95-11.89-10.7-18.64-8.4-1.48.51-2.88,1.36-4.11,2.28.06.12.2-.02.27-.05.65-.27,1.24-.63,1.91-.88,11.06-4.01,21.7,7.03,15.85,17.43-3.61,6.42-9.33,8.9-15.33,12.57-4.64,2.84-9.25,7.03-9.64,12.71-.04.56-.06.81.58.93l-.04-.41h-.21s0,0,0,0ZM295.25,110.62c-2.49-2.52-4.37-5.1-5.22-8.59-2.72-11.24,7.32-19.62,18.37-16.26,1.9.58,3.25,1.6,4.84,2.7.17.12.94.79,1.01.79.04,0,.2-.17.08-.24-2.55-2.44-5.4-4.44-8.95-5.23-11.14-2.47-20.58,7.08-18.08,17.84,1.53,6.61,6.96,12.69,12.03,17.09,1.42,1.23,2.89,2.4,4.46,3.43.07-.07-.57-1.01-.65-1.18-3.45-6.99-1.4-14.25,5.75-17.79,1.92-.95,4.01-1.4,5.83-2.55.48-.3.93-.66,1.39-.98-.43-.23-.9-.39-1.31-.65-2.42-1.57-2.42-5.17-1.47-7.57.23-.57.58-1.05.73-1.62-1.72-1.25-3.38-2.73-5.46-3.41-7.69-2.51-16.53,1.1-18.16,9.23-1.36,6.77,2.04,11.9,6.75,16.38.78.74,1.75,1.33,2.31,2.26l-.84-.53c-1.18-1.01-2.31-2.01-3.4-3.12h0ZM335.62,85.47c-.54-.5-1.34-.85-2.07-1.05l2.07,1.05ZM310.66,128.37c.25.17.32-1.69.34-1.81.77-4.91,5.33-8.91,9.39-11.43,5.9-3.66,11.68-6.15,15.3-12.43,5.07-8.79-1.91-18.3-11.83-17.63-2.31.16-5.79,1.22-7.49,2.78-.46.42-.87.9-1.16,1.46.94,1.16,1.82,2.18,2.35,3.6.9,2.37,1.09,5.26-1.16,6.94-2.13,1.6-3.69,2.09-6.05,3.14-7.4,3.29-10.32,9.99-6.88,17.41.27.58.73,1.58,1.11,2.06.48.62,1.49,1.17,2.05,1.79.09.1.74.98.79,1.09.02.03.02.13-.04.12l-.99-.81c-.06-.01-.06.08-.04.12.06.13.68.76.82.89.94.84,2.21,1.49,3.18,2.3.13.11.28.22.29.4h0ZM314.79,89.91c-1.59,2.24-2.29,5.94-.25,8.12.47.5,1.67,1.33,2.23.57,2.06-2.84-.03-6.39-1.98-8.69ZM309.99,132.33c.47-.2.74-.7,1.2-.97.2-.12,1.53-.65,1.53-.77l-1.71-1.4c-.07-.03-.13-.01-.19.03-.11.07-.76,2.18-.8,2.45-.03.22-.03.44-.02.67h0Z"/>
    <path class="cls-9" d="M310.66,128.37c-.02-.18-.16-.29-.29-.4-.98-.82-2.24-1.46-3.18-2.3-.15-.13-.77-.76-.82-.89-.02-.03-.02-.13.04-.12l.99.81c.06.01.06-.09.04-.12-.05-.11-.7-.99-.79-1.09-.56-.62-1.57-1.17-2.05-1.79-.38-.48-.84-1.48-1.11-2.06-3.44-7.42-.52-14.13,6.88-17.41,2.35-1.05,3.92-1.54,6.05-3.14,2.24-1.68,2.05-4.58,1.16-6.94-.54-1.41-1.41-2.44-2.35-3.6.29-.56.69-1.03,1.16-1.46,1.7-1.55,5.18-2.62,7.49-2.78,9.92-.67,16.9,8.84,11.83,17.63-3.62,6.28-9.4,8.77-15.3,12.43-4.05,2.52-8.62,6.52-9.39,11.43-.02.12-.09,1.98-.34,1.81h0Z"/>
    <path class="cls-9" d="M295.25,110.62c1.09,1.11,2.22,2.1,3.4,3.12l.84.53c-.56-.93-1.54-1.52-2.31-2.26-4.72-4.48-8.11-9.61-6.75-16.38,1.63-8.13,10.47-11.74,18.16-9.23,2.08.68,3.74,2.15,5.46,3.41-.15.57-.5,1.05-.73,1.62-.94,2.39-.95,6,1.47,7.57.41.27.89.42,1.31.65-.46.32-.92.68-1.39.98-1.82,1.14-3.9,1.59-5.83,2.55-7.15,3.54-9.2,10.81-5.75,17.79.08.17.72,1.11.65,1.18-1.57-1.04-3.05-2.2-4.46-3.43-5.07-4.4-10.5-10.47-12.03-17.09-2.49-10.75,6.94-20.3,18.08-17.83,3.55.79,6.4,2.78,8.95,5.23.11.07-.05.24-.08.24-.06,0-.84-.67-1.01-.79-1.59-1.11-2.94-2.12-4.84-2.7-11.05-3.36-21.1,5.03-18.37,16.26.85,3.49,2.74,6.07,5.22,8.59Z"/>
    <path class="cls-9" d="M311.65,128.61h.21s.04.4.04.4c-.64-.11-.62-.37-.58-.93.4-5.68,5.01-9.87,9.64-12.71,6-3.67,11.72-6.15,15.33-12.57,5.86-10.4-4.78-21.44-15.85-17.43-.67.24-1.27.61-1.91.88-.08.03-.21.18-.27.05,1.24-.93,2.63-1.78,4.11-2.28,6.75-2.3,16.48,1.45,18.64,8.4,2.89,9.29-4.83,20.62-12.76,25.23-5.05,2.93-10.13,5.24-14.66,9.02-.54.45-.81,1.09-1.62,1l-.33.93h0Z"/>
    <path class="cls-9" d="M309.99,132.33c0-.22-.01-.44.02-.67.04-.27.69-2.38.8-2.45.06-.04.12-.05.19-.03l1.71,1.4c0,.12-1.33.65-1.53.77-.45.27-.73.77-1.2.97h0Z"/>
    <path class="cls-9" d="M342.01,76.35l-2.7-1.45c.94.27,2,.76,2.7,1.45Z"/>
  </g>
</svg>